<svg width="18" height="18" viewBox="0 0 18 18" fill="none" xmlns="http://www.w3.org/2000/svg">
<path d="M9.23349 0.229507C4.44375 0.229507 0.560791 4.11258 0.560791 8.90221C0.560791 13.6918 4.44375 17.5752 9.23349 17.5752C14.0232 17.5752 17.9065 13.6918 17.9065 8.90221C17.9065 4.11258 14.0232 0.229507 9.23349 0.229507ZM12.9829 10.5518H9.30606C9.29362 10.5518 9.28206 10.5487 9.26974 10.5483C9.25743 10.5489 9.24592 10.5518 9.23343 10.5518C8.90218 10.5518 8.63361 10.2832 8.63361 9.95193V3.82874C8.63361 3.49749 8.90218 3.22892 9.23343 3.22892C9.56468 3.22892 9.83326 3.49749 9.83326 3.82874V9.3521H12.9827C13.314 9.3521 13.5825 9.62068 13.5825 9.95193C13.5825 10.2832 13.3142 10.5518 12.9829 10.5518Z" fill="#CBA262"/>
</svg>
