<svg width="41" height="41" viewBox="0 0 41 41" fill="none" xmlns="http://www.w3.org/2000/svg">
<circle cx="20.5" cy="20.5" r="13.5" fill="#0A1221"/>
<circle cx="20.5" cy="20.5" r="16.7143" stroke="#CBA262" stroke-opacity="0.1" stroke-width="6.42857"/>
<circle cx="20.5" cy="20.5" r="13.5" fill="#0A1221"/>
<circle cx="20.5" cy="20.5" r="15.1071" stroke="#CBA262" stroke-opacity="0.1" stroke-width="3.21429"/>
<circle cx="20.5" cy="20.5" r="12.5357" fill="#0A1221" stroke="#CBA262" stroke-width="1.92857"/>
<path d="M21.985 20.4997L24.7693 23.284C25.0769 23.5916 25.0769 24.0903 24.7693 24.3975L24.3981 24.7687C24.0904 25.0764 23.5916 25.0764 23.2845 24.7687L20.5003 21.9845L17.716 24.7692C17.4084 25.0769 16.9096 25.0769 16.6025 24.7692L16.2307 24.3981C15.9231 24.0903 15.9231 23.5916 16.2307 23.2844L19.0155 20.4997L16.2313 17.7155C15.9236 17.4078 15.9236 16.909 16.2313 16.6019L16.6025 16.2307C16.9101 15.9231 17.4089 15.9231 17.716 16.2307L20.5003 19.015L23.2845 16.2307C23.5922 15.9231 24.0909 15.9231 24.3981 16.2307L24.7693 16.6019C25.0769 16.9096 25.0769 17.4084 24.7693 17.7155L21.985 20.4997Z" fill="#CBA262"/>
</svg>
