<svg width="90" height="85" viewBox="0 0 90 85" fill="none" xmlns="http://www.w3.org/2000/svg">
<path d="M85.3535 31.7665H81.437H80.7714C81.2441 26.7599 81.2827 21.5122 80.8775 16.0522L80.5785 12.0778L77.125 10.1002C76.5365 9.76258 62.4235 1.79446 44.9824 1.79446C44.8956 1.79446 44.7991 1.79446 44.7123 1.79446C44.6255 1.79446 44.529 1.79446 44.4422 1.79446C27.0011 1.79446 12.8881 9.76258 12.2996 10.1002L8.84612 12.0778L8.54707 16.0425C8.14192 21.5025 8.17086 26.7503 8.65319 31.7569H8.09368H4.08068H1.79443V34.0431V60.909V63.1953H4.08068H8.09368H10.3799V60.909V60.1276L11.0938 61.8061L11.6822 63.1953H13.1968H17.6246H19.5925C20.779 64.9124 22.0427 66.5523 23.4029 68.1247C27.0493 72.3403 31.2167 75.9288 35.7795 78.7842C39.2137 80.9258 41.6543 81.8808 42.1077 82.0544L44.7316 83.0287L47.3555 82.0544C47.8089 81.8808 50.2495 80.9354 53.6837 78.7842C58.2465 75.9288 62.4139 72.3403 66.0603 68.1247C67.4205 66.5523 68.6842 64.9124 69.8707 63.1953H71.7711H75.6876H77.9739V60.909V57.1082L79.7392 61.729L80.2987 63.1953H81.8711H85.3921H87.6784V60.909V34.0528V31.7665H85.3535ZM8.09368 60.9187H4.08068H8.09368ZM8.09368 45.4165L9.99407 40.5643L8.09368 45.4165ZM16.1197 16.5635C16.0618 16.5924 16.0329 16.6117 16.0329 16.6117C16.0329 16.6117 16.0618 16.602 16.1197 16.5635ZM16.4477 60.9187H13.1968L10.7851 55.2464L13.1968 60.9187H16.4477ZM16.5827 16.3126C16.5924 16.3126 16.602 16.303 16.6117 16.303C16.6117 16.303 16.6213 16.2933 16.631 16.2933C16.6117 16.303 16.602 16.303 16.5827 16.3126ZM16.8914 16.1583C16.9011 16.1486 16.9203 16.1486 16.93 16.139C16.9396 16.139 16.9493 16.1294 16.9589 16.1197C16.93 16.1294 16.9107 16.1486 16.8914 16.1583ZM17.1229 16.0329C17.1808 16.004 17.2483 15.975 17.3062 15.9364C17.3062 15.9364 17.3159 15.9364 17.3159 15.9268C17.258 15.9654 17.1905 16.004 17.1229 16.0329ZM17.6824 15.7531C17.7114 15.7435 17.7307 15.7242 17.7596 15.7146C17.8464 15.676 17.9332 15.6277 18.0297 15.5795C17.914 15.647 17.7982 15.7049 17.6824 15.7531ZM18.5892 15.319C18.676 15.2805 18.7532 15.2419 18.84 15.2033C18.8497 15.2033 18.8593 15.1936 18.869 15.1936C18.7725 15.2322 18.6857 15.2805 18.5892 15.319ZM19.2066 15.0393C19.2934 15.0007 19.3802 14.9621 19.4671 14.9235C19.4767 14.9139 19.4864 14.9139 19.5056 14.9042C19.3995 14.9428 19.3031 14.9911 19.2066 15.0393ZM21.8015 13.9299C21.898 13.8913 22.0041 13.8528 22.1102 13.8045C22.1295 13.7949 22.1488 13.7949 22.1681 13.7852C22.0427 13.8335 21.9173 13.8817 21.8015 13.9299ZM27.1554 12.0392C27.2615 12.0102 27.358 11.9717 27.4641 11.9427C27.4931 11.9331 27.522 11.9234 27.5509 11.9138C27.4159 11.9524 27.2808 11.991 27.1554 12.0392ZM28.8436 11.5376C28.9497 11.5086 29.0462 11.4797 29.1523 11.4507C29.1812 11.4411 29.2102 11.4314 29.2487 11.4218C29.1137 11.47 28.9786 11.499 28.8436 11.5376ZM33.117 10.5054C33.2135 10.4861 33.31 10.4668 33.4064 10.4475C33.445 10.4378 33.4836 10.4378 33.5126 10.4282C33.3775 10.4475 33.2521 10.4764 33.117 10.5054ZM35.0657 10.1292C35.1621 10.1099 35.2489 10.1002 35.3454 10.0809C35.384 10.0713 35.4226 10.0713 35.4612 10.0616C35.3358 10.0809 35.2007 10.1099 35.0657 10.1292ZM37.0915 9.82046C37.1783 9.81081 37.2747 9.79152 37.3616 9.78187C37.4001 9.77223 37.4387 9.77223 37.4773 9.76258C37.3519 9.78187 37.2169 9.80117 37.0915 9.82046ZM39.8697 9.50212C39.9565 9.49248 40.0433 9.48283 40.1301 9.48283C40.1687 9.48283 40.217 9.47318 40.2555 9.47318C40.1301 9.48283 39.9951 9.49248 39.8697 9.50212ZM41.2974 9.39601C41.3842 9.38636 41.4614 9.38636 41.5482 9.37672C41.5868 9.37672 41.635 9.37672 41.6736 9.36707C41.5482 9.37672 41.4228 9.38636 41.2974 9.39601ZM44.2107 9.29954C44.2878 9.29954 44.365 9.29954 44.4422 9.29954C44.529 9.29954 44.6255 9.29954 44.7123 9.29954C44.5483 9.29954 44.3747 9.29954 44.2107 9.29954ZM44.7219 9.29954C44.8088 9.29954 44.9052 9.29954 44.992 9.29954C45.0692 9.29954 45.1464 9.29954 45.2236 9.29954C45.0596 9.29954 44.8859 9.29954 44.7219 9.29954ZM46.8828 74.0284C46.8635 74.0381 46.8345 74.0477 46.8153 74.067C46.7477 74.096 46.6899 74.1345 46.6223 74.1635C46.5934 74.1828 46.5644 74.1924 46.5259 74.2117C46.6223 74.1635 46.7091 74.1152 46.8153 74.067C46.8538 74.0477 46.8828 74.0284 46.9214 74.0091C46.9021 74.0091 46.8924 74.0188 46.8828 74.0284ZM47.0468 9.33813C47.0854 9.33813 47.1336 9.33813 47.1722 9.33813C47.2494 9.33813 47.3265 9.34777 47.4037 9.34777C47.2879 9.34777 47.1625 9.34778 47.0468 9.33813ZM47.886 9.37672C47.9632 9.37672 48.0404 9.38636 48.1176 9.39601C48.0018 9.38636 47.8764 9.38636 47.7606 9.37672C47.8089 9.37672 47.8474 9.37672 47.886 9.37672ZM48.0404 73.4014C48.0211 73.411 48.0114 73.4207 47.9921 73.4303C48.0404 73.4014 48.079 73.3821 48.1272 73.3532C48.0983 73.3628 48.0693 73.3821 48.0404 73.4014ZM49.1883 9.47318C49.2269 9.47318 49.2655 9.48283 49.3041 9.48283C49.3813 9.49247 49.4584 9.49248 49.5356 9.50212C49.4198 9.49248 49.3041 9.48283 49.1883 9.47318ZM49.8925 9.53106C49.9311 9.53106 49.9697 9.54071 50.0083 9.54071C50.0855 9.55035 50.1626 9.56 50.2398 9.56965C50.1241 9.55035 50.0083 9.54071 49.8925 9.53106ZM50.5967 9.59859C50.6353 9.59859 50.6739 9.60823 50.7029 9.60823C50.78 9.61788 50.8572 9.62753 50.9344 9.63717C50.8186 9.62753 50.7029 9.61788 50.5967 9.59859ZM51.9762 9.76258C52.0051 9.76258 52.0437 9.77223 52.0823 9.77223C52.1595 9.78187 52.2367 9.79152 52.3138 9.80117C52.1884 9.79152 52.0823 9.78187 51.9762 9.76258ZM68.1343 14.1325C68.1343 14.1325 68.144 14.1325 68.144 14.1421C68.1729 14.1518 68.1922 14.1614 68.2211 14.1711C68.1922 14.1614 68.1632 14.1421 68.1343 14.1325ZM68.906 14.4605C68.906 14.4605 68.9157 14.4605 68.906 14.4605C68.935 14.4701 68.9543 14.4798 68.9736 14.4894C68.9543 14.4798 68.9253 14.4701 68.906 14.4605ZM71.1633 15.4734C71.1826 15.483 71.1923 15.483 71.2019 15.4927C71.1826 15.483 71.173 15.4734 71.1633 15.4734ZM71.4238 15.5988C71.4335 15.6084 71.4431 15.6084 71.4528 15.6084C71.4431 15.6084 71.4335 15.5988 71.4238 15.5988ZM71.6746 15.7146C71.6843 15.7242 71.6939 15.7242 71.7036 15.7338C71.6939 15.7242 71.6843 15.7242 71.6746 15.7146ZM72.9576 16.3705C72.9673 16.3705 72.9673 16.3802 72.9769 16.3802C72.9673 16.3802 72.9673 16.3802 72.9576 16.3705ZM72.3209 16.0425C72.3306 16.0425 72.3306 16.0522 72.3402 16.0522C72.3306 16.0425 72.3209 16.0425 72.3209 16.0425ZM72.1184 15.9364C72.1184 15.9364 72.128 15.9364 72.128 15.9461C72.128 15.9461 72.128 15.9461 72.1184 15.9364ZM75.6587 60.9187H71.7421V60.2627V60.9187H75.6587ZM77.1732 48.6674L77.8581 50.4714L77.1732 48.6674ZM81.5528 49.8443C81.5528 49.8154 81.5431 49.7961 81.5431 49.7672C81.5431 49.7864 81.5528 49.8154 81.5528 49.8443ZM81.5817 49.9987C81.5817 50.0276 81.5914 50.0565 81.5914 50.0855C81.5914 50.0565 81.5914 50.0276 81.5817 49.9987ZM81.6396 50.2977C81.6396 50.317 81.6492 50.3267 81.6492 50.346C81.6396 50.3267 81.6396 50.3074 81.6396 50.2977ZM81.6975 50.6161V50.6064V50.6161ZM85.3535 60.9187H81.8325H85.3535Z" fill="#C7C6B2"/>
<path d="M44.9919 1.79427C62.433 1.79427 76.546 9.76239 77.1345 10.1L80.588 12.0776L80.887 16.052C81.2922 21.512 81.2632 26.7598 80.7809 31.7664H81.4465H85.363H87.6493V34.0526V60.9185V63.2047H85.363H81.842H80.26L79.7005 61.7384L77.9448 57.1081V60.9185V63.2047H75.6585H71.742H69.8416C68.6551 64.9218 67.3914 66.5618 66.0312 68.1341C62.3848 72.3497 58.2174 75.9383 53.6546 78.7937C50.2204 80.9352 47.7798 81.8903 47.3264 82.0639L44.7025 83.0382L42.0786 82.0639C41.6252 81.8903 39.1846 80.9449 35.7504 78.7937C31.1876 75.9383 27.0202 72.3497 23.3738 68.1341C22.0136 66.5618 20.7499 64.9218 19.5634 63.2047H17.5955H13.1677H11.6531L11.0647 61.8156L10.3508 60.1371V60.9185V63.2047H8.09352H4.08052H1.79427V60.9185V34.0526V31.7664H4.08052H8.09352H8.65303C8.18034 26.7598 8.14176 21.512 8.54691 16.052L8.84596 12.0872L12.2995 10.1097C12.8879 9.77204 27.0009 1.80392 44.442 1.80392C44.5288 1.80392 44.6253 1.80392 44.7121 1.80392C44.8086 1.79427 44.8954 1.79427 44.9919 1.79427ZM44.7218 9.29935C44.77 9.29935 44.8086 9.29935 44.8568 9.29935C44.9822 9.29935 45.098 9.29935 45.2234 9.29935C45.1462 9.29935 45.0691 9.29935 44.9919 9.29935C44.8954 9.29935 44.8086 9.29935 44.7218 9.29935ZM44.2105 9.29935C44.3359 9.29935 44.4613 9.29935 44.5771 9.29935C44.6253 9.29935 44.6639 9.29935 44.7121 9.29935C44.6253 9.29935 44.5288 9.29935 44.442 9.29935C44.3649 9.29935 44.2877 9.29935 44.2105 9.29935ZM47.4035 9.35723C47.3264 9.35723 47.2492 9.34758 47.172 9.34758C47.1334 9.34758 47.0852 9.34758 47.0466 9.34758C47.1624 9.34758 47.2878 9.34758 47.4035 9.35723ZM41.2972 9.39582C41.4226 9.38617 41.548 9.37653 41.6734 9.37653C41.6349 9.37653 41.5866 9.37652 41.548 9.38617C41.4612 9.38617 41.384 9.39582 41.2972 9.39582ZM48.1174 9.39582C48.0402 9.39582 47.963 9.38617 47.8859 9.37653C47.8473 9.37653 47.8087 9.37652 47.7605 9.36688C47.8859 9.37652 48.0016 9.38617 48.1174 9.39582ZM39.8695 9.50193C39.9949 9.49228 40.13 9.48264 40.2554 9.47299C40.2168 9.47299 40.1686 9.48264 40.13 9.48264C40.0432 9.48264 39.9563 9.49228 39.8695 9.50193ZM49.5354 9.50193C49.4583 9.49228 49.3811 9.49228 49.3039 9.48264C49.2653 9.48264 49.2268 9.47299 49.1882 9.47299C49.3039 9.48264 49.4197 9.49228 49.5354 9.50193ZM50.2397 9.56946C50.1625 9.55981 50.0853 9.55017 50.0081 9.54052C49.9695 9.54052 49.931 9.53087 49.8924 9.53087C50.0081 9.54052 50.1239 9.55016 50.2397 9.56946ZM50.9342 9.63698C50.857 9.62734 50.7799 9.61769 50.7027 9.60804C50.6641 9.60804 50.6255 9.5984 50.5966 9.5984C50.7027 9.61769 50.8184 9.62734 50.9342 9.63698ZM37.0913 9.82027C37.2167 9.80098 37.3517 9.78168 37.4772 9.77204C37.4386 9.78168 37.4 9.78168 37.3614 9.79133C37.2649 9.79133 37.1781 9.80098 37.0913 9.82027ZM52.304 9.81062C52.2269 9.80098 52.1497 9.79133 52.0725 9.78168C52.0436 9.78168 52.005 9.77204 51.9664 9.77204C52.0822 9.78168 52.1883 9.79133 52.304 9.81062ZM35.0655 10.129C35.2006 10.1097 35.326 10.0807 35.461 10.0614C35.4224 10.0711 35.3838 10.0711 35.3453 10.0807C35.2584 10.1 35.162 10.1097 35.0655 10.129ZM33.1169 10.5052C33.2519 10.4762 33.3773 10.4473 33.5124 10.428C33.4738 10.4377 33.4352 10.4377 33.4063 10.4473C33.3098 10.4569 33.2133 10.4859 33.1169 10.5052ZM28.8434 11.5374C28.9785 11.4988 29.1039 11.4602 29.2389 11.4313C29.21 11.4409 29.1811 11.4506 29.1425 11.4602C29.046 11.4795 28.9495 11.5084 28.8434 11.5374ZM27.1553 12.039C27.2903 12.0004 27.4157 11.9618 27.5508 11.9136C27.5218 11.9232 27.4929 11.9329 27.464 11.9425C27.3578 11.9715 27.2614 12.0004 27.1553 12.039ZM21.8014 13.9297C21.9171 13.8815 22.0425 13.8333 22.1583 13.785C22.139 13.7947 22.1197 13.7947 22.1004 13.8043C22.004 13.8526 21.8979 13.8911 21.8014 13.9297ZM68.221 14.1709C68.192 14.1613 68.1727 14.1516 68.1438 14.142C68.1438 14.142 68.1341 14.142 68.1341 14.1323C68.1631 14.142 68.192 14.1613 68.221 14.1709ZM68.9734 14.4892C68.9541 14.4796 68.9348 14.4699 68.9155 14.4603H68.9059C68.9252 14.4699 68.9541 14.4796 68.9734 14.4892ZM19.2257 15.0295C19.2257 15.0295 19.2161 15.0295 19.2161 15.0391C19.2161 15.0295 19.2161 15.0295 19.2257 15.0295C19.3222 14.9909 19.409 14.9426 19.5055 14.904C19.4958 14.9137 19.4862 14.9137 19.4669 14.9233C19.3897 14.9523 19.3029 14.9909 19.2257 15.0295ZM18.5891 15.3188C18.6759 15.2803 18.7723 15.232 18.8688 15.1838C18.8592 15.1838 18.8495 15.1934 18.8399 15.1934C18.753 15.2417 18.6759 15.2803 18.5891 15.3188ZM71.1921 15.4828C71.1825 15.4732 71.1728 15.4732 71.1632 15.4635C71.1728 15.4732 71.1825 15.4828 71.1921 15.4828ZM17.6823 15.7529C17.7884 15.6951 17.9041 15.6468 18.0296 15.589C17.9331 15.6372 17.8463 15.6758 17.7594 15.724C17.7305 15.7337 17.7112 15.7433 17.6823 15.7529ZM71.4429 15.6082H71.4526C71.4429 15.6082 71.4429 15.6082 71.4429 15.6082C71.4333 15.6082 71.4333 15.5986 71.4237 15.5986C71.4333 15.5986 71.4333 15.5986 71.4429 15.6082ZM71.6745 15.7144C71.6841 15.724 71.6938 15.724 71.7034 15.7337C71.6938 15.724 71.6841 15.724 71.6745 15.7144ZM17.171 16.0134C17.1614 16.0231 17.1421 16.0327 17.1324 16.0327C17.1421 16.0231 17.1517 16.0231 17.171 16.0134C17.2192 15.9845 17.2771 15.9652 17.3253 15.9362C17.3253 15.9362 17.3157 15.9362 17.3157 15.9459C17.2675 15.9652 17.2192 15.9845 17.171 16.0134ZM72.1182 15.9362C72.1182 15.9362 72.1279 15.9362 72.1279 15.9459C72.1279 15.9459 72.1279 15.9459 72.1182 15.9362ZM72.3401 16.052C72.3304 16.052 72.3304 16.0423 72.3208 16.0423C72.3208 16.0423 72.3304 16.0423 72.3401 16.052ZM16.9588 16.1195C16.9491 16.1292 16.9395 16.1292 16.9298 16.1388C16.9202 16.1485 16.9009 16.1485 16.8913 16.1581C16.9105 16.1485 16.9298 16.1292 16.9588 16.1195ZM16.6211 16.2932C16.6115 16.2932 16.6115 16.3028 16.6019 16.3028C16.5922 16.3028 16.5826 16.3125 16.5826 16.3125C16.6019 16.3028 16.6115 16.3028 16.6211 16.2932ZM72.9575 16.3703C72.9671 16.3703 72.9768 16.38 72.9768 16.38C72.9671 16.38 72.9671 16.38 72.9575 16.3703ZM16.0327 16.6115C16.0327 16.6115 16.0616 16.5922 16.1195 16.5633C16.0616 16.5922 16.0327 16.6115 16.0327 16.6115ZM8.09352 45.4163L9.99391 40.5641L8.09352 45.4163ZM77.858 50.4712L77.173 48.6673L77.858 50.4712ZM81.5526 49.8056C81.5526 49.8152 81.5526 49.8248 81.5623 49.8345C81.5526 49.8345 81.5526 49.8248 81.5526 49.8056C81.5526 49.7863 81.543 49.7766 81.543 49.7573C81.543 49.7766 81.543 49.7959 81.5526 49.8056ZM81.6008 50.0853C81.5912 50.0564 81.5912 50.0274 81.5912 49.9985C81.5912 50.0274 81.5912 50.0564 81.6008 50.0853ZM81.6491 50.3458C81.6491 50.3265 81.6394 50.3168 81.6394 50.2975C81.6394 50.3072 81.6394 50.3265 81.6491 50.3458ZM81.6973 50.6159C81.6973 50.6062 81.6973 50.6062 81.6973 50.6062V50.6159ZM13.1869 60.9185H16.4379H13.1869L10.7753 55.2463L13.1869 60.9185ZM71.742 60.9185H75.6585H71.742V60.2625V60.9185ZM81.842 60.9185H85.363H81.842ZM4.08052 60.9185H8.09352H4.08052ZM48.127 73.353C48.0981 73.3723 48.0692 73.3819 48.0402 73.4012C48.0209 73.4109 48.0113 73.4205 47.992 73.4302C48.0402 73.4012 48.0885 73.3723 48.127 73.353ZM46.9212 74.009C46.9116 74.0186 46.9019 74.0186 46.8826 74.0282C46.8633 74.0379 46.8344 74.0475 46.8151 74.0668C46.8151 74.0668 46.8151 74.0668 46.8055 74.0668C46.709 74.1151 46.6125 74.1633 46.5257 74.2115C46.5546 74.1922 46.5836 74.1826 46.6222 74.1633C46.68 74.1344 46.7476 74.1054 46.8055 74.0668C46.8055 74.0668 46.8055 74.0668 46.8151 74.0668C46.844 74.0379 46.8826 74.0282 46.9212 74.009ZM44.9919 0C44.9051 0 44.8086 0 44.7218 0C44.635 0 44.5385 0 44.4517 0C26.5282 0 12.0197 8.19964 11.412 8.54692L7.95847 10.5245L7.12886 10.9972L7.06133 11.9425L6.76229 15.9169C6.39572 20.7403 6.37642 25.4575 6.70441 29.9721H4.08052H1.79427H0V31.7664V34.0526V60.9185V63.2047V64.999H1.79427H4.08052H8.09352H10.3798H12.174H13.1966H17.6244H18.6566C19.7274 66.5039 20.8657 67.9509 22.0426 69.311C25.8047 73.6617 30.1071 77.366 34.8243 80.3178C38.4032 82.5559 40.9885 83.5688 41.4709 83.7424L44.0947 84.7167L44.7218 84.9482L45.3392 84.7167L47.963 83.7424C48.4454 83.5591 51.0307 82.5462 54.6096 80.3178C59.3268 77.366 63.6292 73.6617 67.3914 69.311C68.5682 67.9509 69.7066 66.5039 70.7773 64.999H71.742H75.6585H77.9448H79.7391H80.2696H81.842H85.363H87.6493H89.4436V63.2047V60.9185V34.0526V31.7664V29.9721H87.6493H85.363H82.7391C83.0671 25.4575 83.0478 20.7403 82.6813 15.9169L82.3822 11.9425L82.3147 10.9972L81.4851 10.5245L78.0316 8.54692C77.4142 8.19964 62.9057 0 44.9919 0Z" fill="#CBA262"/>
<path d="M73.4015 16.6118C73.4015 16.6118 60.4847 9.21286 44.7125 9.29968C28.9402 9.21286 16.0234 16.6118 16.0234 16.6118C12.5409 63.0218 44.7125 75.0222 44.7125 75.0222C44.7125 75.0222 76.884 63.0218 73.4015 16.6118Z" fill="#0A1221"/>
<path d="M44.9921 9.29951C60.6389 9.29951 73.4014 16.6117 73.4014 16.6117C76.8838 63.0216 44.7123 75.022 44.7123 75.022C44.7123 75.022 12.5504 63.0216 16.0329 16.6117C16.0329 16.6117 28.7954 9.29951 44.4422 9.29951C44.529 9.29951 44.6255 9.29951 44.7123 9.29951C44.8088 9.29951 44.8956 9.29951 44.9921 9.29951ZM44.9921 1.79443C44.9052 1.79443 44.8088 1.79443 44.722 1.79443C44.6351 1.79443 44.5387 1.79443 44.4519 1.79443C27.0107 1.79443 12.8977 9.76255 12.3093 10.1002L8.85579 12.0777L8.55674 16.0425C7.68855 27.6185 8.8172 38.2587 11.9234 47.6642C14.4701 55.3815 18.3288 62.2595 23.3933 68.1247C27.0397 72.3402 31.207 75.9288 35.7699 78.7842C39.2041 80.9257 41.6447 81.8808 42.0981 82.0544L44.722 83.0287L47.3458 82.0544C47.7992 81.8808 50.2398 80.9354 53.674 78.7842C58.2369 75.9288 62.4042 72.3402 66.0507 68.1247C71.1151 62.2595 74.9738 55.3815 77.5205 47.6642C80.6267 38.2587 81.7554 27.6185 80.8872 16.0425L80.5881 12.0681L77.1346 10.0905C76.5365 9.76255 62.4332 1.79443 44.9921 1.79443Z" fill="#0A1221"/>
<path d="M73.4015 16.6117C73.4015 16.6117 60.4847 9.21274 44.7125 9.29956C28.9402 9.21274 16.0234 16.6117 16.0234 16.6117C12.5409 63.0216 44.7125 75.022 44.7125 75.022C44.7125 75.022 76.884 63.0216 73.4015 16.6117Z" fill="#0A1221"/>
<path d="M44.9918 9.29928C60.6387 9.29928 73.4012 16.6114 73.4012 16.6114C76.8836 63.0214 44.7121 75.0218 44.7121 75.0218C44.7121 75.0218 12.5502 63.0214 16.0326 16.6114C16.0326 16.6114 28.7951 9.29928 44.442 9.29928C44.5288 9.29928 44.6253 9.29928 44.7121 9.29928C44.8085 9.29928 44.8954 9.29928 44.9918 9.29928ZM44.9918 4.24445C44.905 4.24445 44.8085 4.24445 44.7217 4.24445C44.6349 4.24445 44.5384 4.24445 44.4516 4.24445C27.6472 4.24445 14.0937 11.9039 13.5245 12.2319L11.1997 13.5631L10.9971 16.2352C10.1482 27.4928 11.2479 37.8051 14.248 46.9018C16.6886 54.3105 20.3929 60.9087 25.2452 66.5231C33.5992 76.189 42.5705 79.6136 42.9564 79.7583L44.7217 80.4142L46.4871 79.7583C46.8633 79.6136 55.8346 76.1987 64.1983 66.5231C69.0505 60.9087 72.7548 54.3008 75.1954 46.9018C78.1955 37.8051 79.2952 27.4832 78.4463 16.2352L78.2438 13.5631L75.9189 12.2319C75.3498 11.9039 61.7866 4.24445 44.9918 4.24445Z" fill="#ADADAD"/>
<path d="M73.4015 16.6117C73.4015 16.6117 60.4847 9.21277 44.7125 9.29959C28.9402 9.21277 16.0234 16.6117 16.0234 16.6117C12.5409 63.0217 44.7125 75.0221 44.7125 75.0221C44.7125 75.0221 76.884 63.0217 73.4015 16.6117Z" fill="#0A1221"/>
<path d="M44.992 9.29907C60.6388 9.29907 73.4013 16.6112 73.4013 16.6112C76.8837 63.0212 44.7122 75.0216 44.7122 75.0216C44.7122 75.0216 12.5503 63.0212 16.0328 16.6112C16.0328 16.6112 28.7953 9.29907 44.4421 9.29907C44.5289 9.29907 44.6254 9.29907 44.7122 9.29907C44.8087 9.29907 44.8955 9.29907 44.992 9.29907ZM44.992 6.52084C44.9051 6.52084 44.8087 6.52084 44.7219 6.52084C44.635 6.52084 44.5386 6.52084 44.4518 6.52084C35.9724 6.52084 28.3515 8.59487 23.451 10.3409C18.1261 12.2316 14.798 14.1224 14.663 14.2092L13.3896 14.9424L13.2835 16.4086C12.4442 27.3576 13.5054 37.3804 16.409 46.1878C18.7628 53.307 22.3127 59.6448 26.9721 65.0373C34.9498 74.2691 43.3906 77.4911 43.7475 77.6262L44.7122 77.9831L45.6769 77.6262C46.0338 77.4911 54.4746 74.2691 62.4524 65.0373C67.1117 59.6448 70.6617 53.307 73.0154 46.1878C75.9287 37.3804 76.9802 27.3576 76.1602 16.4086L76.0541 14.9424L74.7808 14.2092C74.6457 14.132 71.308 12.2316 65.9927 10.3409C61.0922 8.60452 53.4617 6.52084 44.992 6.52084Z" fill="#7F7E7C"/>
<path d="M73.401 16.6116C73.401 16.6116 60.4842 9.21264 44.712 9.29946C28.9397 9.21264 16.0229 16.6116 16.0229 16.6116C12.5405 63.0215 44.712 75.0219 44.712 75.0219C44.712 75.0219 76.8835 63.0215 73.401 16.6116Z" fill="#0A1221"/>
<path d="M53.8761 39.4067H47.3261C46.0238 39.4067 45.3774 40.0627 45.3774 41.3843V46.0822H48.5319V42.1656H52.6703V46.6996L48.7248 49.362V50.0373L52.6703 52.748V58.1501H48.5319V53.9924H45.3774V58.9508C45.3774 60.2627 46.0141 60.9187 47.2875 60.9187H53.8761C55.1688 60.9187 55.8151 60.2627 55.8151 58.9508V52.9216C55.8151 52.0631 55.4678 51.4168 54.7733 50.9827L52.7571 49.719L54.7443 48.4263C55.4582 47.9633 55.8151 47.2977 55.8151 46.4488V41.3843C55.8151 40.0723 55.1688 39.4067 53.8761 39.4067Z" fill="white"/>
<path d="M53.8762 39.4064C55.1689 39.4064 55.8152 40.0624 55.8152 41.384V46.4388C55.8152 47.2877 55.4583 47.9533 54.7444 48.4164L52.7572 49.709L54.7734 50.9727C55.4679 51.4068 55.8152 52.0531 55.8152 52.9117V58.9408C55.8152 60.2528 55.1689 60.9087 53.8762 60.9087H47.2876C46.0142 60.9087 45.3776 60.2528 45.3776 58.9408V53.9825H48.532V58.1402H52.6704V52.738L48.7249 50.0273V49.3521L52.6704 46.6896V42.1557H48.532V46.0722H45.3776V41.384C45.3776 40.0624 46.0239 39.4064 47.3262 39.4064H53.8762ZM53.8762 37.1201H47.3262C44.7505 37.1201 43.0913 38.789 43.0913 41.384V46.0819V48.3681H45.3776H46.4483V49.3714V50.0466V51.2525L47.114 51.7059H45.3872H43.101V53.9921V58.9505C43.101 61.5358 44.7505 63.195 47.2972 63.195H53.8859C56.4519 63.195 58.1015 61.5261 58.1015 58.9505V52.9213C58.1015 51.6383 57.6481 50.5193 56.7992 49.6897C57.6481 48.8408 58.1015 47.7218 58.1015 46.4581V41.384C58.0918 38.7987 56.4422 37.1201 53.8762 37.1201Z" fill="#0A1221"/>
<path d="M12.8011 43.9794L17.0263 34.053H16.9492H12.56L8.09356 45.4167V34.053H4.08057V60.9188H8.09356V55.0344L9.38621 51.9861L11.5085 47.0277L12.8011 43.9794Z" fill="white"/>
<path d="M17.0265 34.0529L12.7916 43.9792L11.4989 47.0179L9.38633 51.9763L8.09368 55.0246V60.9091H4.08068V34.0529H8.09368V45.4166L12.5601 34.0529H16.9493H17.0265ZM20.4896 31.7666H17.0361H16.9589H12.5697H10.9973L10.4282 33.2136L10.3703 33.3486V31.7666H8.09368H4.08068H1.79443V34.0529V60.9187V63.205H4.08068H8.09368H10.3799V60.9187V55.4973L11.4989 52.8831L13.6116 47.9247L14.9042 44.886L19.1391 34.9596L20.4896 31.7666Z" fill="#0A1221"/>
<path d="M67.2464 39.4067H65.6257V42.1656H65.9827V58.1405H61.5741V42.1656H61.9311V39.4067H60.2718C58.9985 39.4067 58.3618 40.0627 58.3618 41.3843V58.9411C58.3618 60.2531 58.9985 60.909 60.2718 60.909H67.2464C68.5487 60.909 69.195 60.2531 69.195 58.9411V41.3843C69.195 40.0723 68.5487 39.4067 67.2464 39.4067Z" fill="#CBA262"/>
<path d="M67.2465 39.4064C68.5488 39.4064 69.1951 40.0624 69.1951 41.384V58.9408C69.1951 60.2528 68.5488 60.9087 67.2465 60.9087H60.272C58.9986 60.9087 58.3619 60.2528 58.3619 58.9408V41.384C58.3619 40.0624 58.9986 39.4064 60.272 39.4064H61.9312V42.1653H61.5743V58.1402H65.9828V42.1653H65.6258V39.4064H67.2465ZM67.2465 37.1201H65.6258H64.2174H61.9312H60.272C57.7253 37.1201 56.0757 38.789 56.0757 41.384V58.9408C56.0757 61.5261 57.7253 63.1853 60.272 63.1853H67.2465C69.8221 63.1853 71.4813 61.5165 71.4813 58.9408V41.384C71.4813 38.7987 69.8221 37.1201 67.2465 37.1201Z" fill="#0A1221"/>
<path d="M34.7763 52.6612C34.9114 52.0052 34.9789 51.4843 34.9789 51.1081V39.4067H31.8438V60.8994H34.6606L39.8119 47.3652C39.6768 48.0211 39.6093 48.5421 39.6093 48.9183V60.8994H42.7444V39.4067H39.9276L34.7763 52.6612Z" fill="white"/>
<path d="M42.7444 39.4064V60.8991H39.6093V48.9276C39.6093 48.5514 39.6768 48.0305 39.8119 47.3745L34.6606 60.9087H31.8437V39.4064H34.9789V51.1078C34.9789 51.484 34.9114 52.0049 34.7763 52.6609L39.9276 39.4064H42.7444ZM45.021 37.1201H42.7348H39.918H38.3552L37.7861 38.5768L37.2555 39.9466V39.4064V37.1201H34.9693H31.8341H29.5479V39.4064V60.8991V63.1853H31.8341H34.6509H36.2233L36.7828 61.7094L37.3134 60.3299V60.8991V63.1853H39.5996H42.7348H45.021V60.8991V39.4064V37.1201Z" fill="#0A1221"/>
<path d="M64.7772 42.1656V39.4067V36.9275H62.79V39.4067V42.1656V43.6415H64.7772V42.1656Z" fill="#CBA262"/>
<path d="M64.7772 36.9272V39.4064V42.1653V43.6316H62.79V42.1653V39.4064V36.9272H64.7772ZM67.0539 34.6409H64.7676H62.7804H60.4941V36.9272V39.4064V42.1653V43.6316V45.9178H62.7804H64.7676H67.0539V43.6316V42.1653V39.4064V36.9272V34.6409Z" fill="#0A1221"/>
<path d="M10.7754 55.2459L13.187 60.9181H17.6149L12.9169 50.2297L10.7754 55.2459Z" fill="#C7C6B2"/>
<path d="M12.9166 50.2296L17.6242 60.9181H13.1964L10.7847 55.2459L12.9166 50.2296ZM12.878 44.4803L10.8137 49.3325L8.68176 54.3488L8.2959 55.2459L8.67212 56.143L11.0838 61.8153L11.6722 63.2044H13.1867H17.6145H21.1163L19.7079 60.0017L15.0003 49.3132L12.878 44.4803Z" fill="#0A1221"/>
<path d="M28.5349 50.7801C28.4673 50.7126 27.8982 50.346 26.8081 49.6804C27.8596 49.034 28.4191 48.6771 28.4866 48.6192C28.94 48.2141 29.1715 47.6449 29.1715 46.9118V41.3843C29.1715 40.0627 28.5349 39.4067 27.2615 39.4067H18.7339V60.8994H27.3194C28.3998 60.8994 29.2873 60.0216 29.2873 58.9315V52.5454C29.2777 51.8026 29.0268 51.2142 28.5349 50.7801ZM21.9366 42.1174H25.9592V47.3266L24.4061 48.4263H21.9366V42.1174ZM26.046 58.1983H21.9366V51.0309H24.464L26.046 52.0727V58.1983Z" fill="white"/>
<path d="M27.2519 39.4064C28.5252 39.4064 29.1619 40.0624 29.1619 41.384V46.9211C29.1619 47.6543 28.9304 48.2234 28.477 48.6286C28.4095 48.6865 27.85 49.0337 26.7985 49.6897C27.8885 50.3553 28.4673 50.7219 28.5252 50.7894C29.0172 51.2235 29.268 51.812 29.268 52.5644V58.9505C29.268 60.0309 28.3902 60.9184 27.3001 60.9184H18.7146V39.4064H27.2519ZM21.9366 48.4164H24.4061L25.9592 47.3166V42.1075H21.9366V48.4164ZM21.9366 58.198H26.046V52.0724L24.464 51.0306H21.9366V58.198ZM27.2519 37.1201H18.7242H16.438V39.4064V60.8991V63.1853H18.7242H27.3097C29.6539 63.1853 31.5543 61.2753 31.5543 58.9408V52.5548C31.5543 51.4357 31.2263 50.4518 30.5992 49.6608C31.0526 49.0337 31.4385 48.1462 31.4385 46.9211V41.384C31.4481 38.7987 29.7986 37.1201 27.2519 37.1201Z" fill="#0A1221"/>
<path d="M81.4467 34.0523V48.6766C81.4467 49.1493 81.5335 49.7956 81.7072 50.6155L75.2632 34.0523H71.7422V34.4285L75.4079 44.0365L81.8326 60.9085H85.3536V34.0523H81.4467Z" fill="#CBA262"/>
<path d="M85.3531 34.0525V60.9184H81.8321L75.4074 44.0464L71.7417 34.4384V34.0525H75.2627L81.697 50.6158C81.5234 49.7958 81.4366 49.1495 81.4366 48.6768V34.0525H85.3531ZM87.6393 31.7663H85.3531H81.4366H79.1503V34.0525V37.7761L77.385 33.2326L76.8158 31.7759H75.2531H71.7321H69.4458V34.0622V34.4384V34.8628L69.6002 35.2583L73.2659 44.8664L79.6905 61.7383L80.25 63.2046H81.8224H85.3434H87.6297V60.9184V34.0525V31.7663H87.6393Z" fill="#0A1221"/>
<path d="M29.5669 63.1852H25.6504L29.9817 61.6996L29.5669 63.1852Z" fill="#0A1221"/>
<path d="M71.7422 60.9185H75.6587V51.8796L71.7422 41.6156V60.9185Z" fill="#CBA262"/>
<path d="M71.7419 41.6154L75.6585 51.8891V60.928H71.7419V41.6154ZM69.4653 29.2098V41.6154V60.9183V63.2046H71.7516H75.6681H77.9544V60.9183V51.8794V51.455L77.8 51.0595L73.8835 40.7858L69.4653 29.2098Z" fill="#0A1221"/>
<path d="M34.4675 64.5454V65.5872H36.1943V66.2721H34.4675V67.3139H36.5415V68.0085H33.7729V63.8508H36.5415V64.5454H34.4675Z" fill="#CBA262"/>
<path d="M36.5414 63.8509V64.5455H34.4673V65.5873H36.1941V66.2722H34.4673V67.3141H36.5414V68.0086H33.7728V63.8509H36.5414ZM38.3356 62.0567H36.5414H33.7728H31.9785V63.8509V68.0086V69.8029H33.7728H36.5414H38.3356V68.0086V67.3141V66.3398V64.5455V63.8509V62.0567Z" fill="#0A1221"/>
<path d="M37.2554 66.8513H37.9499C37.9596 67.1986 38.249 67.3722 38.5577 67.3722C38.876 67.3722 39.1654 67.16 39.1654 66.8417C39.1654 66.4944 38.8374 66.2822 38.5577 66.2629C38.5191 66.2629 38.2393 66.2629 37.9306 66.1278C37.4965 65.9252 37.2554 65.5587 37.2554 65.0667C37.2554 64.2757 37.8824 63.7933 38.5577 63.7933C39.2715 63.7933 39.831 64.2757 39.8407 64.9895H39.1558C39.1461 64.6422 38.876 64.4879 38.5577 64.4879C38.2297 64.4879 37.9499 64.6808 37.9499 65.0667C37.9499 65.414 38.249 65.5973 38.5577 65.5973C38.5866 65.5973 38.876 65.5973 39.1751 65.7323C39.6188 65.9349 39.8503 66.3497 39.8503 66.8417C39.8503 67.6327 39.2233 68.0668 38.5577 68.0668C37.8438 68.0475 37.2747 67.6327 37.2554 66.8513Z" fill="#CBA262"/>
<path d="M38.5576 63.7931C39.2715 63.7931 39.831 64.2754 39.8406 64.9892H39.1557C39.1461 64.642 38.876 64.4876 38.5576 64.4876C38.2297 64.4876 37.9499 64.6805 37.9499 65.0664C37.9499 65.4137 38.2489 65.597 38.5576 65.597C38.5866 65.597 38.876 65.597 39.175 65.732C39.6188 65.9346 39.8503 66.3494 39.8503 66.8414C39.8503 67.6324 39.2233 68.0665 38.5576 68.0665C37.8438 68.0472 37.265 67.6324 37.2553 66.851H37.9499C37.9595 67.1983 38.2489 67.372 38.5576 67.372C38.876 67.372 39.1654 67.1597 39.1654 66.8414C39.1654 66.4941 38.8374 66.2819 38.5576 66.2626C38.5191 66.2626 38.2393 66.2626 37.9306 66.1275C37.4965 65.925 37.2553 65.5584 37.2553 65.0664C37.2553 64.2754 37.892 63.7931 38.5576 63.7931ZM38.5576 61.9988C36.8212 61.9988 35.4611 63.3397 35.4611 65.0664H35.4321L35.4611 66.8896C35.49 68.5681 36.773 69.8222 38.5094 69.8704H38.5287H38.548C40.3133 69.8704 41.6349 68.5681 41.6349 66.851C41.6349 66.8317 41.6349 66.8124 41.6349 66.7932H41.6542L41.6253 64.9699C41.606 63.2721 40.2844 61.9988 38.5576 61.9988Z" fill="#0A1221"/>
<path d="M42.8603 64.4874H41.9921V68.0085H41.3072V64.4874H40.439V63.8508H42.8699V64.4874H42.8603Z" fill="#CBA262"/>
<path d="M42.86 63.8509V64.4876H41.9918V68.0086H41.3069V64.4876H40.4387V63.8509H42.86ZM44.6543 62.0566H42.86H40.429H38.6348V63.8509V64.4876V66.2819H39.503V68.0086V69.8029H41.2972H41.9821H43.7764V68.0086V66.2819H44.6446V64.4876V63.8509V62.0566H44.6543Z" fill="#0A1221"/>
<path d="M44.0181 67.6709C44.0181 67.8736 43.8541 68.0377 43.6417 68.0377C43.439 68.0377 43.2749 67.8736 43.2749 67.6709C43.2749 67.4586 43.439 67.2945 43.6417 67.2945C43.8541 67.2945 44.0181 67.4682 44.0181 67.6709Z" fill="#CBA262"/>
<path d="M43.6413 67.2945C43.8535 67.2945 44.0175 67.4681 44.0175 67.6707C44.0175 67.8733 43.8535 68.0372 43.6413 68.0372C43.4387 68.0372 43.2747 67.8733 43.2747 67.6707C43.2747 67.4681 43.4387 67.2945 43.6413 67.2945ZM43.6413 65.5002C42.4451 65.5002 41.4805 66.4745 41.4805 67.6707C41.4805 68.8669 42.4548 69.8315 43.6413 69.8315C44.8375 69.8315 45.8118 68.8572 45.8118 67.6707C45.8118 66.4745 44.8375 65.5002 43.6413 65.5002Z" fill="#0A1221"/>
<path d="M46.9692 68.0089H44.5479V67.3819L46.0334 65.3368C46.3711 64.8738 46.1106 64.4976 45.7537 64.4976C45.5029 64.4976 45.2328 64.6423 45.2328 64.9992H44.5768C44.5768 64.3336 44.9434 63.803 45.744 63.803C46.5736 63.803 47.3357 64.6712 46.6122 65.6745L45.3775 67.3144H46.9595V68.0089H46.9692Z" fill="#CBA262"/>
<path d="M45.7633 63.7931C46.5929 63.7931 47.355 64.6613 46.6315 65.6645L45.3967 67.3044H46.9788V67.999H44.5575V67.372L46.043 65.3269C46.3807 64.8638 46.1202 64.4876 45.7633 64.4876C45.5125 64.4876 45.2424 64.6323 45.2424 64.9892H44.5864C44.596 64.3236 44.953 63.7931 45.7633 63.7931ZM45.7633 61.9988C44.0462 61.9988 42.8018 63.2528 42.8018 64.9892V66.7353L42.7632 66.7932V67.3816V68.0086V69.8029H44.5575H46.9788H48.773V68.0086V67.3141V65.5198H48.6476C48.7923 64.8735 48.7248 64.1982 48.4161 63.6001C47.9145 62.6258 46.8726 61.9988 45.7633 61.9988Z" fill="#0A1221"/>
<path d="M47.8569 66.8511V65.0086C47.8569 63.4362 50.2782 63.4362 50.2782 65.0086V66.8511C50.2782 68.4235 47.8569 68.4235 47.8569 66.8511ZM48.5515 64.9507V66.8897C48.5515 67.5746 49.5837 67.5649 49.5837 66.8897V64.9507C49.5837 64.2754 48.5515 64.2754 48.5515 64.9507Z" fill="#CBA262"/>
<path d="M49.0722 63.8219C49.68 63.8219 50.2877 64.2174 50.2877 64.9988V66.8413C50.2877 67.6323 49.68 68.0182 49.0722 68.0182C48.4645 68.0182 47.8568 67.6227 47.8568 66.8413V64.9988C47.8568 64.2174 48.4645 63.8219 49.0722 63.8219ZM49.0626 67.3911C49.3231 67.3911 49.5835 67.2175 49.5835 66.8799V64.9409C49.5835 64.6033 49.3231 64.4393 49.0722 64.4393C48.8118 64.4393 48.5513 64.6129 48.5513 64.9409V66.8799C48.5513 67.2272 48.8118 67.3911 49.0626 67.3911ZM49.0722 62.0276C47.3551 62.0276 46.0625 63.3106 46.0625 64.9988V66.8413C46.0625 68.5391 47.3551 69.8124 49.0722 69.8124C50.7893 69.8124 52.082 68.5294 52.082 66.8413V64.9988C52.0724 63.301 50.7797 62.0276 49.0722 62.0276Z" fill="#0A1221"/>
<path d="M52.4102 68.0087H51.7156V64.642L51.0982 64.8638L50.8667 64.3622L51.8217 63.8413H52.4102V68.0087Z" fill="#CBA262"/>
<path d="M52.4102 63.8509V68.0086H51.7156V64.6419L51.0982 64.8638L50.8667 64.3622L51.8217 63.8413H52.4102V63.8509ZM54.2044 62.0566H52.4102H51.8217H51.3683L50.9728 62.2689L50.0178 62.7898L48.5322 63.5905L49.2461 65.1243L49.4776 65.6259L49.931 66.6002V68.0183V69.8125H51.7253H52.4198H54.2141V68.0086V63.8509V62.0566H54.2044Z" fill="#0A1221"/>
<path d="M55.6609 66.7932C55.6609 68.4524 53.23 68.4524 53.23 66.7932C53.23 66.4556 53.4229 66.118 53.6737 65.925C53.4229 65.7224 53.23 65.3945 53.23 65.0568C53.23 63.3976 55.6609 63.4169 55.6609 65.0568C55.6609 65.3945 55.4873 65.7417 55.1979 65.925C55.4873 66.1372 55.6609 66.4459 55.6609 66.7932ZM54.4455 65.6163C54.7541 65.6163 55.005 65.3655 55.005 65.0568C55.005 64.2755 53.8956 64.2755 53.8956 65.0568C53.8956 65.3655 54.1464 65.6163 54.4455 65.6163ZM54.9857 66.7932C54.9857 66.4942 54.7445 66.2627 54.4455 66.2627C54.1464 66.2627 53.9149 66.5038 53.9149 66.7932C53.9149 67.5553 54.9857 67.5553 54.9857 66.7932Z" fill="#CBA262"/>
<path d="M54.4454 63.8124C55.0531 63.8124 55.6609 64.2272 55.6609 65.0472C55.6609 65.3848 55.4872 65.7321 55.1979 65.9154C55.4872 66.1372 55.6609 66.4459 55.6609 66.7836C55.6609 67.6132 55.0531 68.028 54.4454 68.028C53.8377 68.028 53.2299 67.6132 53.2299 66.7836C53.2299 66.4459 53.4229 66.1083 53.6737 65.9154C53.4229 65.7128 53.2299 65.3848 53.2299 65.0472C53.2396 64.2272 53.8377 63.8124 54.4454 63.8124ZM54.4454 65.6163C54.7541 65.6163 55.0049 65.3655 55.0049 65.0568C55.0049 64.671 54.7252 64.4684 54.4454 64.4684C54.1657 64.4684 53.8956 64.6613 53.8956 65.0568C53.8956 65.3655 54.1464 65.6163 54.4454 65.6163ZM54.4454 67.3624C54.7155 67.3624 54.9856 67.1694 54.9856 66.7836C54.9856 66.4845 54.7445 66.253 54.4454 66.253C54.1464 66.253 53.9148 66.4942 53.9148 66.7836C53.9148 67.1694 54.185 67.3624 54.4454 67.3624ZM54.4454 62.0181C52.7283 62.0181 51.4453 63.3204 51.4453 65.0472C51.4453 65.3462 51.4935 65.6356 51.59 65.9154C51.5032 66.1951 51.4453 66.4845 51.4453 66.7739C51.4453 68.5103 52.738 69.8126 54.4551 69.8126C56.1722 69.8126 57.4648 68.5103 57.4648 66.7739C57.4648 66.4749 57.4166 66.1855 57.3298 65.9057C57.4166 65.626 57.4648 65.3366 57.4648 65.0375C57.4552 63.3301 56.1625 62.0181 54.4454 62.0181Z" fill="#0A1221"/>
<path d="M16.1485 40.8729L13.6597 47.4809L16.7176 53.9634L17.0263 39.8793L16.1485 40.8729Z" fill="#0A1221"/>
<path d="M34.4675 64.5452V65.587H36.1943V66.2719H34.4675V67.3138H36.5415V68.0083H33.7729V63.8506H36.5415V64.5452H34.4675Z" fill="#CBA262"/>
<path d="M37.2554 66.8511H37.9499C37.9596 67.1984 38.249 67.372 38.5577 67.372C38.876 67.372 39.1654 67.1598 39.1654 66.8414C39.1654 66.4942 38.8374 66.2819 38.5577 66.2626C38.5191 66.2626 38.2393 66.2626 37.9306 66.1276C37.4965 65.925 37.2554 65.5584 37.2554 65.0664C37.2554 64.2754 37.8824 63.7931 38.5577 63.7931C39.2715 63.7931 39.831 64.2754 39.8407 64.9893H39.1558C39.1461 64.642 38.876 64.4876 38.5577 64.4876C38.2297 64.4876 37.9499 64.6806 37.9499 65.0664C37.9499 65.4137 38.249 65.597 38.5577 65.597C38.5866 65.597 38.876 65.597 39.1751 65.7321C39.6188 65.9346 39.8503 66.3495 39.8503 66.8414C39.8503 67.6325 39.2233 68.0665 38.5577 68.0665C37.8438 68.0473 37.2747 67.6325 37.2554 66.8511Z" fill="#CBA262"/>
<path d="M42.8598 64.4876H41.9916V68.0086H41.3067V64.4876H40.4385V63.851H42.8694V64.4876H42.8598Z" fill="#CBA262"/>
<path d="M44.0181 67.6709C44.0181 67.8736 43.8541 68.0377 43.6417 68.0377C43.439 68.0377 43.2749 67.8736 43.2749 67.6709C43.2749 67.4586 43.439 67.2945 43.6417 67.2945C43.8541 67.2945 44.0181 67.4682 44.0181 67.6709Z" fill="#CBA262"/>
<path d="M46.9692 68.0087H44.5479V67.3817L46.0334 65.3366C46.3711 64.8735 46.1106 64.4973 45.7537 64.4973C45.5029 64.4973 45.2328 64.642 45.2328 64.9989H44.5768C44.5768 64.3333 44.9434 63.8028 45.744 63.8028C46.5736 63.8028 47.3357 64.671 46.6122 65.6742L45.3775 67.3141H46.9595V68.0087H46.9692Z" fill="#CBA262"/>
<path d="M47.8569 66.8512V65.0087C47.8569 63.4363 50.2782 63.4363 50.2782 65.0087V66.8512C50.2782 68.4236 47.8569 68.4236 47.8569 66.8512ZM48.5515 64.9509V66.8898C48.5515 67.5747 49.5837 67.5651 49.5837 66.8898V64.9509C49.5837 64.2756 48.5515 64.2756 48.5515 64.9509Z" fill="#CBA262"/>
<path d="M52.4102 68.0088H51.7156V64.6422L51.0982 64.864L50.8667 64.3624L51.8217 63.8415H52.4102V68.0088Z" fill="#CBA262"/>
<path d="M55.6609 66.7933C55.6609 68.4526 53.23 68.4526 53.23 66.7933C53.23 66.4557 53.4229 66.1181 53.6737 65.9251C53.4229 65.7226 53.23 65.3946 53.23 65.057C53.23 63.3977 55.6609 63.417 55.6609 65.057C55.6609 65.3946 55.4873 65.7419 55.1979 65.9251C55.4873 66.1374 55.6609 66.4461 55.6609 66.7933ZM54.4455 65.6165C54.7541 65.6165 55.005 65.3656 55.005 65.057C55.005 64.2756 53.8956 64.2756 53.8956 65.057C53.8956 65.3656 54.1464 65.6165 54.4455 65.6165ZM54.9857 66.7933C54.9857 66.4943 54.7445 66.2628 54.4455 66.2628C54.1464 66.2628 53.9149 66.5039 53.9149 66.7933C53.9149 67.5554 54.9857 67.5554 54.9857 66.7933Z" fill="#CBA262"/>
<path d="M58.2368 14.1032H31.1973C25.0138 14.1032 19.9976 19.1195 19.9976 25.3029C19.9976 31.4864 25.0138 36.5027 31.1973 36.5027H58.2272C64.4106 36.5027 69.4269 31.4864 69.4269 25.3029C69.4269 19.1195 64.4203 14.1032 58.2368 14.1032Z" fill="#9F2128"/>
<path d="M58.2367 14.1032H56.124H52.1303H48.5514H34.2358L44.9243 18.8301L46.7957 19.6597C45.9565 21.3575 45.4838 23.2772 45.4838 25.3029C45.4838 26.2869 45.5996 27.2323 45.8021 28.1487C44.5095 26.4605 43.8053 24.3479 43.5448 23.4604C43.4677 24.0682 43.4291 24.6759 43.4291 25.3029C43.4291 29.779 45.9951 34.3997 49.5547 36.5027H52.1207H58.227C64.4105 36.5027 69.4267 31.4864 69.4267 25.3029C69.4267 19.1195 64.4201 14.1032 58.2367 14.1032Z" fill="#5E1D25"/>
<path d="M58.2466 32.3453C62.1358 32.3453 65.2887 29.1925 65.2887 25.3033C65.2887 21.4141 62.1358 18.2612 58.2466 18.2612C54.3574 18.2612 51.2046 21.4141 51.2046 25.3033C51.2046 29.1925 54.3574 32.3453 58.2466 32.3453Z" fill="#9F2128"/>
<path d="M58.2475 17.307C53.839 17.307 50.2505 20.8956 50.2505 25.3041C50.2505 29.7126 53.839 33.3011 58.2475 33.3011C62.6561 33.3011 66.2446 29.7126 66.2446 25.3041C66.2446 20.8956 62.6561 17.307 58.2475 17.307ZM58.2475 32.3461C54.3696 32.3461 51.2055 29.1917 51.2055 25.3041C51.2055 21.4261 54.36 18.262 58.2475 18.262C62.1255 18.262 65.2896 21.4165 65.2896 25.3041C65.2896 29.1917 62.1255 32.3461 58.2475 32.3461Z" fill="#5E1D25"/>
<path d="M58.2465 15.8303C53.0277 15.8303 48.7832 20.0748 48.7832 25.3033C48.7832 30.5318 53.0277 34.7763 58.2465 34.7763C63.4654 34.7763 67.7099 30.5318 67.7099 25.3033C67.7099 20.0748 63.4654 15.8303 58.2465 15.8303ZM58.2465 33.31C53.838 33.31 50.2495 29.7214 50.2495 25.3129C50.2495 20.9044 53.838 17.3159 58.2465 17.3159C62.6551 17.3159 66.2436 20.9044 66.2436 25.3129C66.2436 29.7118 62.6551 33.31 58.2465 33.31Z" fill="#0A1221"/>
<path d="M59.7993 20.7218V21.9469C61.063 22.5354 61.9505 23.8184 61.9505 25.304C61.9505 27.3394 60.2913 28.9986 58.2558 28.9986C56.2204 28.9986 54.5612 27.3394 54.5612 25.304C54.5612 23.8184 55.439 22.5354 56.7124 21.9469V20.7218C54.8023 21.3681 53.4229 23.1817 53.4229 25.304C53.4229 27.9761 55.5933 30.1466 58.2655 30.1466C60.9376 30.1466 63.0888 27.9761 63.0888 25.304C63.0888 23.1817 61.7093 21.3681 59.7993 20.7218Z" fill="#0A1221"/>
<path d="M58.8151 19.4959H57.6768V22.5732H58.8151V19.4959Z" fill="#0A1221"/>
<path d="M38.7793 33.6185C29.4992 29.0749 29.6343 24.3384 29.5378 24.2709C29.5378 24.2709 31.2645 25.4574 33.8209 26.451C36.3773 27.4446 37.6699 27.5604 37.6699 27.5604C28.66 22.1679 27.811 16.9395 27.7918 16.3703C26.9621 16.6886 26.1904 17.1131 25.4862 17.634C23.1517 19.3801 21.6372 22.1679 21.6372 25.3031C21.6372 26.8948 22.0327 28.39 22.7176 29.7116C24.319 32.7696 27.5216 34.8629 31.2067 34.8629H41.953C41.4803 34.6989 39.85 34.1394 38.7793 33.6185Z" fill="#DB272A"/>
<path d="M58.2366 14.1034C64.4201 14.1034 69.4363 19.1197 69.4363 25.3031C69.4363 31.4866 64.4201 36.5029 58.2366 36.5029H31.1971C25.0136 36.5029 19.9973 31.4866 19.9973 25.3031C19.9973 19.1197 25.0136 14.1034 31.1971 14.1034H58.2366ZM58.2366 12.1451H31.1971C23.9428 12.1451 18.0391 18.0489 18.0391 25.3031C18.0391 32.5574 23.9428 38.4611 31.1971 38.4611H58.2269C65.4812 38.4611 71.3849 32.5574 71.3849 25.3031C71.3849 18.0489 65.4812 12.1451 58.2366 12.1451Z" fill="#0A1221"/>
<path d="M53.8766 39.4068H47.3265C46.0243 39.4068 45.3779 40.0627 45.3779 41.3843V46.0822H48.5324V42.1657H52.6708V46.6996L48.7253 49.3621V50.0374L52.6708 52.7481V58.1502H48.5324V53.9925H45.3779V58.9508C45.3779 60.2628 46.0146 60.9188 47.288 60.9188H53.8766C55.1693 60.9188 55.8156 60.2628 55.8156 58.9508V52.9217C55.8156 52.0631 55.4683 51.4168 54.7737 50.9827L52.7576 49.719L54.7448 48.4264C55.4587 47.9633 55.8156 47.2977 55.8156 46.4488V41.3843C55.8156 40.0724 55.1693 39.4068 53.8766 39.4068Z" fill="white"/>
<path d="M71.7422 60.9187H75.6587V51.8798L71.7422 41.6158V60.9187Z" fill="#CBA262"/>
<path d="M12.8011 43.9792L17.0263 34.0528H16.9492H12.56L8.09356 45.4166V34.0528H4.08057V60.9187H8.09356V55.0342L9.38621 51.9859L11.5085 47.0275L12.8011 43.9792Z" fill="white"/>
<path d="M67.2469 39.4068H65.6262V42.1657H65.9831V58.1405H61.5746V42.1657H61.9316V39.4068H60.2723C58.999 39.4068 58.3623 40.0627 58.3623 41.3843V58.9412C58.3623 60.2531 58.999 60.9091 60.2723 60.9091H67.2469C68.5491 60.9091 69.1955 60.2531 69.1955 58.9412V41.3843C69.1955 40.0724 68.5491 39.4068 67.2469 39.4068Z" fill="#CBA262"/>
<path d="M34.7763 52.6612C34.9114 52.0053 34.9789 51.4844 34.9789 51.1081V39.4068H31.8438V60.8995H34.6606L39.8119 47.3652C39.6768 48.0212 39.6093 48.5421 39.6093 48.9183V60.8995H42.7444V39.4068H39.9276L34.7763 52.6612Z" fill="white"/>
<path d="M64.7772 42.1655V39.4065V36.9273H62.79V39.4065V42.1655V43.6414H64.7772V42.1655Z" fill="#CBA262"/>
<path d="M52.6708 52.7479V58.15H48.5324V53.9923H45.3779V58.9507C45.3779 60.2626 46.0146 60.9186 47.288 60.9186H53.8766C55.1693 60.9186 55.8156 60.2626 55.8156 58.9507V52.9216C55.8156 52.4103 55.6902 51.9858 55.449 51.6193C54.0406 51.6675 52.6225 51.7061 51.1948 51.735L52.6708 52.7479Z" fill="#C7C6B2"/>
<path d="M71.7422 60.9186H75.6587V51.8797L74.9159 49.9311C73.8741 50.0758 72.813 50.2108 71.7422 50.3363V60.9186Z" fill="#BE8349"/>
<path d="M4.08057 60.9186H8.09356V55.0342L9.38621 51.9858L10.8814 48.4841C8.51802 48.0307 6.24141 47.5387 4.08057 46.9985V60.9186Z" fill="#C7C6B2"/>
<path d="M65.9831 58.1402H61.5746V51.2525C60.5135 51.32 59.4427 51.3876 58.3623 51.4454V58.9312C58.3623 60.2432 58.999 60.8991 60.2723 60.8991H67.2469C68.5491 60.8991 69.1955 60.2432 69.1955 58.9312V50.5965C68.1343 50.7123 67.0636 50.8088 65.9831 50.9052V58.1402Z" fill="#BE8349"/>
<path d="M10.7754 55.2462L13.187 60.9184H17.6149L12.9169 50.2299L10.7754 55.2462Z" fill="#C7C6B2"/>
<path d="M28.5349 50.7801C28.4673 50.7126 27.8982 50.346 26.8081 49.6804C27.8596 49.0341 28.4191 48.6772 28.4866 48.6193C28.94 48.2141 29.1715 47.645 29.1715 46.9118V41.3843C29.1715 40.0627 28.5349 39.4068 27.2615 39.4068H18.7339V60.8995H27.3194C28.3998 60.8995 29.2873 60.0216 29.2873 58.9316V52.5455C29.2777 51.8027 29.0268 51.2142 28.5349 50.7801ZM21.9366 42.1175H25.9592V47.3267L24.4061 48.4264H21.9366V42.1175ZM26.046 58.1984H21.9366V51.031H24.464L26.046 52.0728V58.1984Z" fill="white"/>
<path d="M18.7241 60.9089H27.3096C28.39 60.9089 29.2775 60.031 29.2775 58.941V52.5549C29.2775 51.8796 29.075 51.3394 28.6794 50.9246C25.2452 50.6256 21.9268 50.2397 18.7338 49.7863V60.9089H18.7241ZM21.9364 51.0307H24.4639L26.0459 52.0726V58.1982H21.9364V51.0307Z" fill="#C7C6B2"/>
<path d="M81.4467 34.0527V48.677C81.4467 49.1496 81.5335 49.796 81.7072 50.6159L75.2632 34.0527H71.7422V34.4289L75.4079 44.0369L81.8326 60.9089H85.3536V34.0527H81.4467Z" fill="#CBA262"/>
<path d="M81.6973 50.616L81.0606 48.9857C79.8933 49.1883 78.7068 49.3812 77.501 49.5548L81.8227 60.9089H85.3437V48.1754C84.0703 48.4358 82.768 48.677 81.4368 48.9085C81.4754 49.3619 81.5526 49.931 81.6973 50.616Z" fill="#BE8349"/>
<path d="M34.7764 52.6612C34.8826 52.1692 34.9404 51.7544 34.9694 51.4168C33.9179 51.3589 32.8857 51.2914 31.8535 51.2238V60.8994H34.6703L38.2203 51.5711C37.2267 51.5325 36.2331 51.4843 35.2588 51.4264L34.7764 52.6612Z" fill="#C7C6B2"/>
<path d="M39.6094 60.909H42.7445V51.7254C41.693 51.7061 40.6512 51.6772 39.6094 51.6386V60.909Z" fill="#C7C6B2"/>
</svg>
