<svg width="61" height="20" viewBox="0 0 61 20" fill="none" xmlns="http://www.w3.org/2000/svg">
<g clip-path="url(#clip0_2097_2954)">
<path d="M37.0095 3.92065H32.1409C31.1751 3.92065 30.6914 4.40315 30.6914 5.36898V8.80802H33.0389V5.94216H36.1107V9.26057L33.1813 11.2111V11.7038L36.1107 13.6851V17.6366H33.0389V14.5894H30.6923V18.2192C30.6923 19.1782 31.1656 19.6572 32.1114 19.6572H37.0104C37.9701 19.6572 38.4495 19.1782 38.4495 18.2192V13.8049C38.4495 13.1752 38.1906 12.7022 37.6739 12.3874L36.1732 11.4626L37.6531 10.5173C38.1837 10.1751 38.4495 9.69259 38.4495 9.06894V5.36813C38.4486 4.40315 37.9692 3.92065 37.0095 3.92065Z" fill="white"/>
<path d="M50.29 19.6667H53.1985V13.0529L50.29 5.53497V19.6667Z" fill="#E0AC59"/>
<path d="M6.48313 7.26902L9.62699 0H9.5662H6.30075L2.98493 8.3187V0H0V19.6667H2.98493V15.3567V15.3559L3.94893 13.1274L5.51913 9.49584L6.48313 7.26902Z" fill="white"/>
<path d="M46.9466 3.92065H45.7412V5.94216H46.0078V17.6366H42.7311V5.9413H42.9977V3.92065H41.7619C40.8161 3.92065 40.3428 4.40315 40.3428 5.36898V18.22C40.3428 19.179 40.8161 19.6581 41.7619 19.6581H46.9466C47.9124 19.6581 48.3961 19.179 48.3961 18.22V5.36813C48.3961 4.40315 47.9132 3.92065 46.9466 3.92065Z" fill="#E0AC59"/>
<path d="M22.8154 13.6235C22.917 13.141 22.9682 12.7621 22.9682 12.4874V3.92065H20.6416V19.6581H22.7337L26.5611 9.75247C26.4595 10.235 26.4082 10.6139 26.4082 10.8885V19.6572H28.7349V3.92065H26.6427L22.8154 13.6235Z" fill="white"/>
<path d="M45.1081 5.94136V3.92071V2.10367H43.6309V3.92071V5.94136V7.01841H45.1081V5.94136Z" fill="#E0AC59"/>
<path d="M36.1107 13.6843V17.6358H33.0389V14.5886H30.6914V18.2184C30.6914 19.1774 31.1647 19.6564 32.1105 19.6564H37.0095C37.9692 19.6564 38.4486 19.1774 38.4486 18.2184V13.8041C38.4486 13.4319 38.3557 13.1154 38.175 12.8536C37.1294 12.8913 36.0742 12.9204 35.0103 12.9392L36.1107 13.6843Z" fill="#C8C6B2"/>
<path d="M50.29 19.6666H53.1977V13.0529L52.6462 11.6268C51.8707 11.7303 51.0847 11.8279 50.29 11.9203V19.6666Z" fill="#BE8349"/>
<path d="M0 19.6667H2.98493V15.3568L3.94893 13.1282L5.0571 10.5661C3.30019 10.2333 1.61188 9.87057 0 9.48047V19.6667Z" fill="#C8C6B2"/>
<path d="M46.0078 17.6357H42.7311V12.5952C41.9416 12.6483 41.1452 12.6953 40.3428 12.7372V18.2192C40.3428 19.1781 40.8161 19.6572 41.7619 19.6572H46.9466C47.9124 19.6572 48.3961 19.1781 48.3961 18.2192V12.1144C47.6084 12.1957 46.812 12.2718 46.0078 12.3429V17.6357Z" fill="#BE8349"/>
<path d="M4.97949 15.5142L6.77202 19.6667H10.0635L6.56706 11.8424L4.97949 15.5142Z" fill="#C8C6B2"/>
<path d="M18.175 12.2462C18.1273 12.1992 17.6991 11.9314 16.8888 11.4421C17.6713 10.9664 18.0864 10.7081 18.1342 10.6679C18.4747 10.3727 18.6449 9.95782 18.6449 9.42057V5.36816C18.6449 4.40318 18.1716 3.91983 17.2258 3.91983H10.8877V19.6573H17.2666C18.0726 19.6573 18.7265 19.0131 18.7265 18.2192V13.5431C18.7265 12.9939 18.5424 12.5619 18.175 12.2462ZM13.276 5.90113H16.2661V9.71229L15.1128 10.5164H13.276V5.90113ZM16.3278 17.676H13.276V12.4267H15.1536L16.3278 13.1915V17.676Z" fill="white"/>
<path d="M10.8877 19.6572H17.2666C18.0726 19.6572 18.7265 19.0131 18.7265 18.2192V13.5431C18.7265 13.0512 18.578 12.6534 18.2827 12.3489C15.7338 12.1264 13.263 11.8476 10.8877 11.5165V19.6572ZM13.276 12.4276H15.1536L16.3278 13.1915V17.6759H13.276V12.4276Z" fill="#C8C6B2"/>
<path d="M57.4966 0V10.7063C57.4966 11.0503 57.56 11.5233 57.6877 12.1264L52.905 0H50.29V0.278031L53.0118 7.31436L57.7901 19.6658H60.4051V0H57.4966Z" fill="#E0AC59"/>
<path d="M57.6878 12.1264L57.218 10.9347C56.3521 11.0819 55.4706 11.2222 54.5752 11.3548L57.7903 19.6666H60.4052V10.3462C59.4586 10.5352 58.4903 10.7149 57.5028 10.886C57.5193 11.2085 57.581 11.6217 57.6878 12.1264Z" fill="#BE8349"/>
<path d="M22.8154 13.6235C22.8918 13.2617 22.9396 12.9588 22.9587 12.7142C22.1805 12.6714 21.4076 12.6235 20.6416 12.5704V19.6564H22.7337L25.3722 12.8279C24.6331 12.798 23.8984 12.7638 23.1697 12.7253L22.8154 13.6235Z" fill="#C8C6B2"/>
<path d="M26.4072 19.6573H28.7339V12.9306C27.9531 12.9144 27.1776 12.8938 26.4072 12.8673V19.6573Z" fill="#C8C6B2"/>
</g>
<defs>
<clipPath id="clip0_2097_2954">
<rect width="60.4047" height="19.6667" fill="white"/>
</clipPath>
</defs>
</svg>
