<svg width="22" height="22" viewBox="0 0 22 22" fill="none" xmlns="http://www.w3.org/2000/svg">
<g clip-path="url(#clip0_2097_2335)">
<path d="M10.8558 5.27869C7.77833 5.27869 5.28711 7.77282 5.28711 10.8473C5.28711 13.9247 7.78129 16.4158 10.8558 16.4158C13.9332 16.4158 16.4245 13.9217 16.4245 10.8473C16.4245 7.76985 13.9303 5.27869 10.8558 5.27869ZM10.8558 14.4617C8.85798 14.4617 7.24125 12.8437 7.24125 10.8473C7.24125 8.85076 8.85925 7.23279 10.8558 7.23279C12.8523 7.23279 14.4703 8.85076 14.4703 10.8473C14.4712 12.8442 12.8536 14.4617 10.8558 14.4617Z" fill="#CAC8B4"/>
<path d="M15.3253 0.0691801C13.3288 -0.0240744 8.38279 -0.0194117 6.38456 0.0691801C4.62838 0.151414 3.07947 0.575298 1.83026 1.82449C-0.25656 3.91127 0.010068 6.72374 0.010068 10.8481C0.010068 15.0692 -0.225192 17.8164 1.83026 19.8722C3.92556 21.9666 6.77878 21.6924 10.8545 21.6924C15.0362 21.6924 16.4791 21.6949 17.9577 21.1227C19.9678 20.3423 21.4853 18.5454 21.6337 15.318C21.7278 13.3202 21.7223 8.37562 21.6337 6.37743C21.4548 2.56755 19.4099 0.257385 15.3253 0.0691801ZM18.4858 18.4912C17.1175 19.8595 15.2193 19.7374 10.8282 19.7374C6.30657 19.7374 4.49358 19.8044 3.17061 18.4776C1.64672 16.961 1.92267 14.5258 1.92267 10.8337C1.92267 5.8374 1.40976 2.23947 6.42441 1.98259C7.57655 1.9419 7.91566 1.92834 10.8155 1.92834L10.8562 1.95547C15.6754 1.95547 19.4561 1.45104 19.6829 6.46432C19.7346 7.60839 19.7461 7.95173 19.7461 10.8473C19.7457 15.3163 19.8304 17.1403 18.4858 18.4912Z" fill="#CAC8B4"/>
<path d="M16.6451 6.36034C17.3638 6.36034 17.9464 5.77772 17.9464 5.05902C17.9464 4.34031 17.3638 3.75769 16.6451 3.75769C15.9264 3.75769 15.3438 4.34031 15.3438 5.05902C15.3438 5.77772 15.9264 6.36034 16.6451 6.36034Z" fill="#CAC8B4"/>
</g>
<defs>
<clipPath id="clip0_2097_2335">
<rect width="21.7033" height="21.7033" fill="white"/>
</clipPath>
</defs>
</svg>
