<svg width="16" height="21" viewBox="0 0 16 21" fill="none" xmlns="http://www.w3.org/2000/svg">
<path d="M8.02403 0.114029C4.09163 0.114029 0.892334 3.31333 0.892334 7.24572C0.892334 7.51889 0.912032 7.80764 0.952344 8.12815C1.19635 10.3461 2.39243 13.0121 4.50758 16.0528C6.06585 18.2927 7.53296 19.8751 7.59449 19.9414C7.82659 20.1906 8.22131 20.1906 8.45357 19.9415C8.51526 19.8751 9.98588 18.2901 11.546 16.0473C13.6639 13.0028 14.8586 10.3342 15.0971 8.11533C15.1366 7.79497 15.1559 7.51004 15.1559 7.24435C15.1545 3.31272 11.9552 0.114029 8.02403 0.114029V0.114029ZM8.02403 12.0425C5.37917 12.0425 3.22737 9.89073 3.22737 7.24572C3.22737 4.60086 5.37917 2.44906 8.02403 2.44906C10.6684 2.44906 12.8196 4.60086 12.8196 7.24572C12.8196 9.89073 10.6684 12.0425 8.02403 12.0425Z" fill="#CBA262"/>
</svg>

