<svg width="270" height="270" viewBox="0 0 270 270" fill="none" xmlns="http://www.w3.org/2000/svg">
<path d="M269 134.99C269 208.99 209.007 268.98 135 268.98C60.9939 268.98 1 208.99 1 134.99C1 60.9894 60.9939 1 135 1C209.007 1 269 60.9894 269 134.99Z" stroke="#CBA262" stroke-width="2"/>
<path d="M101.509 96.5375C106.001 96.5375 110.347 96.5375 114.674 96.5375C114.674 98.0482 114.674 99.3933 114.674 100.966C111.693 100.966 108.836 100.966 106.021 100.966C106.021 102.539 106.021 103.905 106.021 105.271C110.492 105.271 114.798 105.271 119.165 105.271C119.165 100.801 119.165 96.4547 119.165 92.0882C111.714 92.0882 104.365 92.0882 97.0586 92.0882C97.0586 99.5382 97.0586 106.823 97.0586 114.148C113.432 114.148 129.701 114.148 146.012 114.148C146.012 112.7 146.012 111.375 146.012 109.761C131.067 109.761 116.309 109.761 101.53 109.761C101.509 105.271 101.509 100.925 101.509 96.5375Z" fill="#DBA45E" fill-opacity="0.15"/>
<path d="M38.811 105.498C43.3648 105.498 47.7324 105.498 52.2655 105.498C52.2655 111.417 52.2655 117.232 52.2655 123.151C56.7572 123.151 61.0833 123.151 65.5337 123.151C65.5337 118.66 65.5337 114.293 65.5337 109.927C64.064 109.927 62.7186 109.927 61.1247 109.927C61.1247 112.865 61.1247 115.763 61.1247 118.577C59.4895 118.577 58.1441 118.577 56.633 118.577C56.633 112.638 56.633 106.864 56.633 100.883C50.6716 100.883 44.8345 100.883 38.811 100.883C38.811 97.8412 38.811 95.0061 38.811 92.0675C37.2379 92.0675 35.8717 92.0675 34.4849 92.0675C34.4849 99.5175 34.4849 106.864 34.4849 114.19C35.9545 114.19 37.2793 114.19 38.811 114.19C38.811 111.272 38.811 108.437 38.811 105.498Z" fill="#DBA45E" fill-opacity="0.15"/>
<path d="M150.69 114.231C152.139 114.231 153.464 114.231 154.975 114.231C154.975 100.78 154.975 87.5354 154.975 74.1668C153.505 74.1668 152.139 74.1668 150.69 74.1668C150.69 87.5561 150.69 100.863 150.69 114.231Z" fill="#DBA45E" fill-opacity="0.15"/>
<path d="M223.82 45.7947C200.099 22.0582 168.554 9 135 9C101.447 9 69.9011 22.0582 46.1798 45.7947C22.4585 69.5106 9.39734 101.049 9.39734 134.615C9.39734 168.182 22.4585 199.699 46.1798 223.436C69.9011 247.152 101.447 260.231 135 260.231C168.554 260.231 200.099 247.172 223.82 223.436C247.542 199.699 260.603 168.161 260.603 134.615C260.603 101.07 247.542 69.5106 223.82 45.7947ZM253.213 111.231C253.71 113.735 254.124 116.259 254.455 118.825C249.612 118.825 244.851 118.825 240.09 118.825C240.09 120.398 240.09 121.702 240.09 123.316C243.05 123.316 245.948 123.316 248.804 123.316C248.804 124.91 248.804 126.234 248.804 127.621C244.354 127.621 240.007 127.621 235.619 127.621C235.619 123.13 235.619 118.784 235.619 114.231C241.601 114.231 247.417 114.231 253.213 114.231C253.213 113.176 253.213 112.203 253.213 111.231ZM250.709 100.945C250.15 100.945 249.57 100.945 249.011 100.945C249.011 102.539 249.011 103.863 249.011 105.457C249.984 105.457 250.957 105.457 251.93 105.457C252.282 106.885 252.613 108.313 252.923 109.741C250.046 109.741 247.314 109.741 244.582 109.741C244.582 105.229 244.582 100.925 244.582 96.4133C246.155 96.4133 247.728 96.4133 249.301 96.4133C249.777 97.9033 250.253 99.414 250.709 100.945ZM244.354 84.0587C245.555 86.6663 246.693 89.3151 247.707 92.0261C245.099 92.0261 242.574 92.0261 239.924 92.0261C239.924 98.0482 239.924 103.884 239.924 109.72C238.351 109.72 236.985 109.72 235.578 109.72C235.578 102.291 235.578 94.9854 235.578 87.4526C238.579 87.4526 241.456 87.4526 244.354 87.4526C244.354 86.2524 244.354 85.1969 244.354 84.0587ZM235.578 69.7175C235.888 69.7175 236.178 69.7175 236.488 69.7175C237.71 71.6214 238.869 73.5667 240.007 75.5533C240.007 76.5053 240.007 77.4572 240.007 78.4092C240.545 78.4092 241.063 78.4092 241.58 78.4092C242.388 79.9199 243.153 81.4513 243.878 83.0033C241.063 83.0033 238.351 83.0033 235.598 83.0033C235.578 78.4299 235.578 74.1254 235.578 69.7175ZM208.751 42.7733C210.138 42.7733 211.525 42.7733 212.891 42.7733C214.547 44.1806 216.162 45.6292 217.756 47.1192C214.754 47.1192 211.753 47.1192 208.751 47.1192C208.751 45.6499 208.751 44.3461 208.751 42.7733ZM119.414 15.1256C120.842 14.9393 122.27 14.7944 123.698 14.6496C123.698 16.5535 123.698 18.416 123.698 20.3406C122.146 20.3406 120.78 20.3406 119.414 20.3406C119.414 18.5815 119.414 16.8639 119.414 15.1256ZM83.6247 25.6383C85.115 24.9347 86.6261 24.2518 88.1578 23.5896C88.1578 23.9828 88.1578 24.3967 88.1578 24.7899C92.6081 24.7899 96.9136 24.7899 101.219 24.7899C101.219 23.2999 101.219 21.934 101.219 20.3819C99.6459 20.3819 98.1141 20.3819 96.6031 20.3819C99.6045 19.3679 102.647 18.4781 105.752 17.7124C105.752 21.5822 105.752 25.3693 105.752 29.2185C98.3211 29.2185 90.9936 29.2185 83.6247 29.2185C83.6247 28.0182 83.6247 26.8386 83.6247 25.6383ZM52.1826 47.1813C52.1826 50.1613 52.1826 53.1206 52.1826 56.0592C49.3261 56.0592 46.511 56.0592 43.7166 56.0592C46.3868 52.9757 49.2019 49.9957 52.1826 47.1813ZM29.9723 75.6154C31.3385 73.1735 32.8081 70.7936 34.3399 68.4758C34.3399 73.2976 34.3399 78.0781 34.3399 82.9206C32.7667 82.9206 31.4006 82.9206 29.9723 82.9206C29.9723 80.4786 29.9723 78.0367 29.9723 75.6154ZM18.1324 105.271C19.0432 105.271 19.9746 105.271 21.0303 105.271C21.0303 102.291 21.0303 99.3933 21.0303 96.3926C24.0938 96.3926 26.8675 96.3926 29.7447 96.3926C29.7447 94.7578 29.7447 93.3919 29.7447 91.8606C27.2401 91.8606 24.8389 91.8606 22.3757 91.8606C23.3486 89.3151 24.3836 86.8111 25.522 84.3692C25.522 85.3832 25.522 86.3972 25.522 87.4112C30.0137 87.4112 34.2985 87.4112 38.873 87.4112C38.873 84.4312 38.873 81.5547 38.873 78.7196C40.5082 78.7196 41.8744 78.7196 43.3854 78.7196C43.3854 84.6589 43.3854 90.4326 43.3854 96.4547C49.3675 96.4547 55.184 96.4547 61.2074 96.4547C61.2074 99.5175 61.2074 102.373 61.2074 105.291C62.7806 105.291 64.126 105.291 65.7613 105.291C65.7613 102.291 65.7613 99.414 65.7613 96.5582C70.3358 96.5582 74.6205 96.5582 79.1123 96.5582C79.1123 102.539 79.1123 108.354 79.1123 114.169C80.6854 114.169 82.0515 114.169 83.3556 114.169C83.3556 103.739 83.3556 93.4747 83.3556 83.1896C78.8846 83.1896 74.5998 83.1896 70.2737 83.1896C70.2737 84.6796 70.2737 86.0454 70.2737 87.5975C73.2544 87.5975 76.0902 87.5975 78.8846 87.5975C78.8846 89.1496 78.8846 90.5154 78.8846 91.8606C74.4342 91.8606 70.1288 91.8606 65.7613 91.8606C65.7613 87.4319 65.7613 83.1068 65.7613 78.6989C73.1923 78.6989 80.5405 78.6989 87.868 78.6989C87.868 92.1089 87.868 105.374 87.868 118.618C83.3556 118.618 79.0088 118.618 74.5377 118.618C74.5377 112.679 74.5377 106.905 74.5377 101.049C73.0267 101.049 71.6605 101.049 70.0874 101.049C70.0874 109.989 70.0874 118.805 70.0874 127.683C62.5943 127.683 55.2875 127.683 47.8151 127.683C47.8151 121.764 47.8151 115.928 47.8151 110.01C46.2626 110.01 44.8965 110.01 43.3233 110.01C43.3233 112.948 43.3233 115.783 43.3233 118.639C35.7681 118.639 28.4406 118.639 21.1131 118.639C21.1131 117.17 21.1131 115.845 21.1131 114.335C24.0524 114.335 26.8882 114.335 29.7861 114.335C29.7861 109.782 29.7861 105.436 29.7861 101.09C28.2957 101.09 26.9296 101.09 25.3978 101.09C25.3978 104.091 25.3978 106.926 25.3978 109.741C22.5827 109.741 19.8504 109.741 17.1388 109.741C17.4286 108.23 17.7598 106.74 18.1324 105.271ZM19.1674 167.768C19.7883 167.768 20.3886 167.768 21.051 167.768C21.051 158.828 21.051 150.053 21.051 141.217C22.5827 141.217 23.9489 141.217 25.3357 141.217C25.3357 151.647 25.3357 161.932 25.3357 172.3C23.7419 172.3 22.148 172.3 20.5749 172.3C20.0781 170.81 19.602 169.299 19.1674 167.768ZM25.3564 184.51C24.2387 182.047 23.183 179.543 22.2308 176.997C23.2658 176.997 24.3008 176.997 25.3564 176.997C25.3564 179.543 25.3564 182.026 25.3564 184.51ZM43.3854 212.757C41.7916 210.895 40.2598 208.991 38.7902 207.025C38.7902 198.478 38.7902 189.932 38.7902 181.323C37.8794 181.323 37.2171 181.323 36.5547 181.323C35.8509 181.323 35.1471 181.323 34.5055 181.323C34.5055 187.903 34.5055 194.443 34.5055 200.962C32.8288 198.437 31.235 195.829 29.7447 193.16C29.7447 174.224 29.7447 155.496 29.7447 136.747C25.2943 136.747 20.9682 136.747 16.5593 136.747C16.5593 143.431 16.5593 150.095 16.5593 156.738C15.2138 149.557 14.51 142.169 14.51 134.595C14.51 133.829 14.5307 133.084 14.5307 132.318C21.1338 132.318 27.6954 132.318 34.3813 132.318C34.3813 147.198 34.3813 161.953 34.3813 176.935C37.4241 176.935 40.3012 176.935 43.3647 176.935C43.3854 188.959 43.3854 200.817 43.3854 212.757ZM52.2654 222.091C52.0998 221.925 51.9135 221.76 51.7479 221.594C51.9135 221.594 52.0998 221.594 52.2654 221.594C52.2654 221.78 52.2654 221.946 52.2654 222.091ZM61.2281 229.789C59.6343 228.547 58.0819 227.285 56.5501 225.961C56.5501 214.061 56.5501 202.224 56.5501 190.408C55.0805 190.408 53.7557 190.408 52.224 190.408C52.224 199.327 52.224 208.143 52.224 217C50.6508 217 49.2847 217 47.8979 217C47.8979 206.57 47.8979 196.285 47.8979 185.958C52.3482 185.958 56.6743 185.958 61.2281 185.958C61.2281 200.672 61.2281 215.22 61.2281 229.789ZM105.711 251.477C102.047 250.566 98.4246 249.469 94.9057 248.207C97.0792 248.207 99.2526 248.207 101.426 248.207C101.426 245.268 101.426 242.475 101.426 239.577C102.937 239.577 104.303 239.577 105.711 239.577C105.711 243.592 105.711 247.545 105.711 251.477ZM132.599 252.698C128.107 252.698 123.76 252.698 119.372 252.698C119.372 251.228 119.372 249.925 119.372 248.414C122.311 248.414 125.147 248.414 128.066 248.414C128.066 246.821 128.066 245.413 128.066 244.048C123.595 244.048 119.289 244.048 114.984 244.048C114.984 247.214 114.984 250.318 114.984 253.422C113.473 253.174 111.983 252.884 110.492 252.574C110.492 248.228 110.492 243.882 110.492 239.453C116.412 239.453 122.229 239.453 128.273 239.453C128.273 233.411 128.273 227.595 128.273 221.697C129.846 221.697 131.212 221.697 132.62 221.697C132.599 232.127 132.599 242.392 132.599 252.698ZM195.297 238.895C193.869 239.722 192.399 240.529 190.929 241.295C190.929 234.714 190.929 228.196 190.929 221.677C192.42 221.677 193.744 221.677 195.297 221.677C195.297 227.43 195.297 233.142 195.297 238.895ZM213.284 226.105C210.304 226.105 207.323 226.105 204.363 226.105C204.363 228.465 204.363 230.782 204.363 233.059C202.893 234.093 201.382 235.107 199.851 236.101C199.851 231.279 199.851 226.478 199.851 221.594C205.998 221.594 212.146 221.594 218.273 221.594C216.658 223.146 215.003 224.657 213.284 226.105ZM244.52 184.82C244.52 182.171 244.52 179.522 244.52 176.873C245.637 176.873 246.734 176.873 247.831 176.873C246.817 179.584 245.699 182.233 244.52 184.82ZM252.013 163.381C249.467 163.381 247.003 163.381 244.375 163.381C244.375 154.358 244.375 145.542 244.375 136.602C235.391 136.602 226.615 136.602 217.569 136.602C217.569 130.58 217.569 124.723 217.569 118.867C215.975 118.867 214.651 118.867 213.077 118.867C213.077 121.847 213.077 124.723 213.077 127.848C207.013 127.848 201.196 127.848 195.235 127.848C195.235 130.89 195.235 133.684 195.235 136.664C189.273 136.664 183.436 136.664 177.558 136.664C177.558 144.197 177.558 151.543 177.558 159.076C180.518 159.076 183.374 159.076 186.169 159.076C186.169 160.628 186.169 161.994 186.169 163.567C168.305 163.567 150.566 163.567 132.64 163.567C132.64 169.589 132.64 175.425 132.64 181.198C131.067 181.198 129.701 181.198 128.356 181.198C128.356 173.748 128.356 166.443 128.356 158.931C140.154 158.931 151.829 158.931 163.482 158.931C163.482 153.24 163.482 147.777 163.482 142.252C162.033 142.252 160.667 142.252 159.073 142.252C159.073 146.411 159.073 150.467 159.073 154.627C147.213 154.627 135.58 154.627 123.823 154.627C123.823 165.036 123.823 175.321 123.823 185.668C137.236 185.668 150.545 185.668 164.041 185.668C164.041 182.688 164.041 179.853 164.041 177.018C171.534 177.018 178.841 177.018 186.169 177.018C186.169 181.467 186.169 185.813 186.169 190.221C181.718 190.221 177.413 190.221 173.087 190.221C173.087 188.711 173.087 187.303 173.087 185.689C176.088 185.689 178.924 185.689 181.76 185.689C181.76 184.178 181.76 182.854 181.76 181.467C177.309 181.467 172.942 181.467 168.409 181.467C168.409 184.427 168.409 187.262 168.409 190.366C153.422 190.366 138.643 190.366 123.823 190.366C123.823 191.939 123.823 193.263 123.823 194.65C146.157 194.65 168.388 194.65 190.66 194.65C190.66 187.221 190.66 179.915 190.66 172.569C174.287 172.569 158.038 172.569 141.769 172.569C141.769 174.059 141.769 175.425 141.769 176.956C147.73 176.956 153.567 176.956 159.384 176.956C159.384 178.508 159.384 179.874 159.384 181.219C151.932 181.219 144.646 181.219 137.318 181.219C137.318 176.749 137.318 172.403 137.318 167.851C155.182 167.851 172.921 167.851 190.66 167.851C190.66 163.339 190.66 159.035 190.66 154.523C187.721 154.523 184.885 154.523 181.987 154.523C181.987 149.971 181.987 145.625 181.987 141.051C190.909 141.051 199.727 141.051 208.524 141.051C208.524 139.458 208.524 138.113 208.524 136.561C205.543 136.561 202.707 136.561 199.933 136.561C199.933 135.008 199.933 133.643 199.933 132.318C204.384 132.318 208.689 132.318 213.16 132.318C213.16 144.197 213.16 155.951 213.16 167.788C220.653 167.788 228.002 167.788 235.371 167.788C235.371 160.338 235.371 153.054 235.371 145.687C230.941 145.687 226.635 145.687 222.268 145.687C222.268 150.136 222.268 154.503 222.268 158.848C223.758 158.848 225.124 158.848 226.656 158.848C226.656 155.868 226.656 153.033 226.656 150.26C228.209 150.26 229.575 150.26 230.9 150.26C230.9 154.71 230.9 159.014 230.9 163.339C226.47 163.339 222.164 163.339 217.818 163.339C217.818 155.889 217.818 148.563 217.818 141.258C225.269 141.258 232.555 141.258 240.007 141.258C240.007 150.178 240.007 158.952 240.007 167.83C243.712 167.83 247.293 167.83 250.833 167.83C250.398 169.341 249.943 170.81 249.446 172.3C235.826 172.3 222.268 172.3 208.627 172.3C208.627 163.381 208.627 154.585 208.627 145.728C201.134 145.728 193.786 145.728 186.438 145.728C186.438 147.218 186.438 148.584 186.438 150.157C189.398 150.157 192.254 150.157 195.297 150.157C195.297 153.178 195.297 156.013 195.297 158.89C196.87 158.89 198.236 158.89 199.809 158.89C199.809 155.931 199.809 153.095 199.809 150.281C201.382 150.281 202.749 150.281 204.094 150.281C204.094 157.71 204.094 165.015 204.094 172.341C202.624 172.341 201.258 172.341 199.706 172.341C199.706 169.361 199.706 166.526 199.706 163.629C198.153 163.629 196.808 163.629 195.214 163.629C195.214 175.57 195.214 187.386 195.214 199.141C163.813 199.141 132.661 199.141 101.488 199.141C101.488 197.671 101.488 196.367 101.488 194.795C104.469 194.795 107.367 194.795 110.43 194.795C110.43 191.711 110.43 188.855 110.43 185.979C111.983 185.979 113.349 185.979 114.88 185.979C114.88 188.959 114.88 191.794 114.88 194.712C116.412 194.712 117.778 194.712 119.165 194.712C119.165 178.322 119.165 162.056 119.165 145.79C117.675 145.79 116.309 145.79 114.777 145.79C114.777 148.77 114.777 151.605 114.777 154.668C105.773 154.668 96.955 154.668 88.1371 154.668C88.1371 156.2 88.1371 157.524 88.1371 159.055C97.0378 159.055 105.856 159.055 114.715 159.055C114.715 166.609 114.715 173.955 114.715 181.24C113.204 181.24 111.838 181.24 110.285 181.24C110.285 175.259 110.285 169.444 110.285 163.608C108.754 163.608 107.449 163.608 105.918 163.608C105.918 172.527 105.918 181.343 105.918 190.428C102.834 190.428 99.9357 190.428 97.0792 190.428C97.0792 195.002 97.0792 199.306 97.0792 203.797C100.039 203.797 102.875 203.797 105.959 203.797C105.959 212.799 105.959 221.615 105.959 230.451C110.513 230.451 114.818 230.451 119.331 230.451C119.331 224.533 119.331 218.697 119.331 212.82C126.845 212.82 134.151 212.82 141.665 212.82C141.665 224.719 141.665 236.515 141.665 248.29C143.259 248.29 144.625 248.29 145.929 248.29C145.929 234.88 145.929 221.615 145.929 208.35C135.497 208.35 125.23 208.35 114.756 208.35C114.756 214.33 114.756 220.166 114.756 225.94C113.204 225.94 111.817 225.94 110.513 225.94C110.513 218.49 110.513 211.205 110.513 203.88C123.926 203.88 137.174 203.88 150.607 203.88C150.607 218.759 150.607 233.514 150.607 248.311C152.16 248.311 153.526 248.311 155.14 248.311C155.14 233.411 155.14 218.635 155.14 203.838C168.616 203.838 181.842 203.838 195.152 203.838C195.152 205.307 195.152 206.673 195.152 208.267C183.229 208.267 171.41 208.267 159.632 208.267C159.632 215.8 159.632 223.105 159.632 230.41C161.102 230.41 162.468 230.41 163.979 230.41C163.979 224.491 163.979 218.717 163.979 212.84C165.49 212.84 166.856 212.84 168.326 212.84C168.326 223.229 168.326 233.514 168.326 243.882C166.856 243.882 165.49 243.882 163.938 243.882C163.938 240.923 163.938 238.087 163.938 235.211C162.385 235.211 161.019 235.211 159.611 235.211C159.611 239.64 159.611 243.944 159.611 248.331C164.041 248.331 168.409 248.331 172.942 248.331C172.942 236.453 172.942 224.698 172.942 212.654C181.967 212.654 190.826 212.654 199.851 212.654C199.851 200.61 199.851 188.855 199.851 177.08C213.285 177.08 226.553 177.08 239.883 177.08C239.883 182.73 239.883 188.359 239.883 193.946C238.475 196.43 236.985 198.851 235.412 201.21C235.412 194.608 235.412 188.069 235.412 181.55C224.897 181.55 214.609 181.55 204.342 181.55C204.342 191.98 204.342 202.265 204.342 212.571C208.813 212.571 213.16 212.571 217.507 212.571C217.507 209.571 217.507 206.735 217.507 203.9C215.996 203.9 214.63 203.9 213.036 203.9C213.036 205.39 213.036 206.756 213.036 208.101C211.484 208.101 210.159 208.101 208.751 208.101C208.751 200.693 208.751 193.408 208.751 186C210.2 186 211.566 186 213.16 186C213.16 190.47 213.16 194.836 213.16 199.182C214.754 199.182 216.12 199.182 217.652 199.182C217.652 194.733 217.652 190.428 217.652 186C222.185 186 226.532 186 231.003 186C231.003 193.181 231.003 200.258 231.003 207.398C229.575 209.281 228.084 211.123 226.553 212.923C226.553 205.432 226.553 198.002 226.553 190.532C224.98 190.532 223.634 190.532 222.04 190.532C222.04 199.472 222.04 208.288 222.04 217.31C210.014 217.31 198.215 217.31 186.396 217.31C186.396 226.168 186.396 234.901 186.396 243.654C184.864 244.379 183.333 245.082 181.76 245.744C181.76 236.266 181.76 226.83 181.76 217.352C180.29 217.352 178.924 217.352 177.392 217.352C177.392 227.43 177.392 237.425 177.392 247.483C171.389 249.738 165.159 251.539 158.742 252.843C151.58 252.843 144.398 252.843 137.153 252.843C137.153 240.964 137.153 229.168 137.153 217.393C132.558 217.393 128.211 217.393 123.698 217.393C123.698 223.312 123.698 229.106 123.698 234.983C116.205 234.983 108.857 234.983 101.302 234.983C101.302 226.023 101.302 217.227 101.302 208.412C99.7287 208.412 98.3625 208.412 96.8722 208.412C96.8722 220.332 96.8722 232.086 96.8722 244.068C92.7323 244.068 88.5925 244.068 84.4526 244.068C81.4099 242.661 78.4499 241.13 75.552 239.474C78.1601 239.474 80.7889 239.474 83.397 239.474C83.397 226.085 83.397 212.82 83.397 199.451C81.9273 199.451 80.5612 199.451 78.9674 199.451C78.9674 211.35 78.9674 223.146 78.9674 234.942C77.3735 234.942 76.0074 234.942 74.724 234.942C74.724 221.511 74.724 208.246 74.724 194.981C79.195 194.981 83.5005 194.981 88.075 194.981C88.075 209.86 88.075 224.657 88.075 239.453C89.6481 239.453 90.9729 239.453 92.5046 239.453C92.5046 221.573 92.5046 203.797 92.5046 185.813C95.5681 185.813 98.4039 185.813 101.26 185.813C101.26 178.301 101.26 171.017 101.26 163.505C95.3197 163.505 89.5033 163.505 83.6247 163.505C83.6247 158.973 83.6247 154.668 83.6247 150.157C92.546 150.157 101.364 150.157 110.244 150.157C110.244 148.584 110.244 147.218 110.244 145.666C107.284 145.666 104.427 145.666 101.509 145.666C101.509 141.113 101.509 136.767 101.509 132.422C103.02 132.422 104.386 132.422 105.959 132.422C105.959 135.402 105.959 138.237 105.959 141.072C110.472 141.072 114.777 141.072 119.124 141.072C119.124 139.603 119.124 138.237 119.124 136.685C116.164 136.685 113.328 136.685 110.306 136.685C110.306 133.663 110.306 130.808 110.306 127.972C105.752 127.972 101.385 127.972 96.8308 127.972C96.8308 133.932 96.8308 139.748 96.8308 145.77C90.7866 145.77 84.9494 145.77 79.1537 145.77C79.1537 153.261 79.1537 160.566 79.1537 168.057C85.0943 168.057 90.9315 168.057 96.7894 168.057C96.7894 172.61 96.7894 176.977 96.7894 181.509C93.8087 181.509 90.9729 181.509 87.9508 181.509C87.9508 184.53 87.9508 187.365 87.9508 190.428C81.9273 190.428 76.1109 190.428 70.1081 190.428C70.1081 205.39 70.1081 220.125 70.1081 234.963C69.4871 234.963 68.8868 234.963 68.2659 234.963C66.1132 233.514 64.0018 232.003 61.9526 230.431C63.236 230.431 64.4158 230.431 65.7199 230.431C65.7199 215.551 65.7199 200.817 65.7199 185.834C71.7433 185.834 77.5598 185.834 83.397 185.834C83.397 184.282 83.397 182.957 83.397 181.405C71.4949 181.405 59.6964 181.405 47.7116 181.405C47.7116 178.343 47.7116 175.487 47.7116 172.486C44.6895 172.486 41.833 172.486 38.7488 172.486C38.7488 157.524 38.7488 142.748 38.7488 127.786C30.614 127.786 22.6862 127.786 14.717 127.786C14.9654 123.295 15.4829 118.867 16.2074 114.521C16.3109 114.521 16.4144 114.521 16.5179 114.521C16.5179 117.48 16.5179 120.336 16.5179 123.337C17.3872 123.337 18.0289 123.337 18.6913 123.337C26.2051 123.337 33.6982 123.378 41.212 123.295C42.8886 123.275 43.3647 123.73 43.344 125.427C43.2819 138.858 43.3026 152.288 43.3026 165.719C43.3026 166.423 43.3026 167.147 43.3026 168.057C46.3868 168.057 49.2226 168.057 52.2447 168.057C52.2447 171.1 52.2447 173.955 52.2447 176.832C56.7778 176.832 61.1453 176.832 65.575 176.832C65.575 166.423 65.575 156.137 65.575 145.832C64.0639 145.832 62.6357 145.832 61.0625 145.832C61.0625 154.772 61.0625 163.546 61.0625 172.362C59.5308 172.362 58.1647 172.362 56.6329 172.362C56.6329 169.382 56.6329 166.547 56.6329 163.505C53.6315 163.505 50.7957 163.505 47.8772 163.505C47.8772 153.013 47.8772 142.727 47.8772 132.215C59.7585 132.215 71.5777 132.215 83.397 132.215C83.397 130.663 83.397 129.338 83.397 127.765C80.4163 127.765 77.5391 127.765 74.6619 127.765C74.6619 126.172 74.6619 124.847 74.6619 123.44C79.1123 123.44 83.4591 123.44 87.9094 123.44C87.9094 127.869 87.9094 132.173 87.9094 136.705C76.0074 136.705 64.2088 136.705 52.3482 136.705C52.3482 144.259 52.3482 151.605 52.3482 158.89C53.8592 158.89 55.2254 158.89 56.7778 158.89C56.7778 152.909 56.7778 147.094 56.7778 141.258C61.2902 141.258 65.5957 141.258 70.1081 141.258C70.1081 153.158 70.1081 164.974 70.1081 176.791C77.6633 176.791 84.9908 176.791 92.3597 176.791C92.3597 175.321 92.3597 174.018 92.3597 172.445C86.3984 172.445 80.5198 172.445 74.6826 172.445C74.6826 161.891 74.6826 151.605 74.6826 141.134C80.6233 141.134 86.4605 141.134 92.4839 141.134C92.4839 135.112 92.4839 129.276 92.4839 123.42C99.9977 123.42 107.305 123.42 114.86 123.42C114.86 126.4 114.86 129.297 114.86 132.153C116.433 132.153 117.758 132.153 119.145 132.153C119.145 127.703 119.145 123.337 119.145 118.763C110.223 118.763 101.405 118.763 92.4425 118.763C92.4425 103.801 92.4425 89.0668 92.4425 74.2289C81.9894 74.2289 71.7019 74.2289 61.1453 74.2289C61.1453 80.1682 61.1453 86.0247 61.1453 91.9019C56.5708 91.9019 52.2654 91.9019 47.7737 91.9019C47.7737 85.9626 47.7737 80.1475 47.7737 74.1461C44.7516 74.1461 41.8951 74.1461 38.7902 74.1461C38.7902 71.0833 38.7902 68.2068 38.7902 65.3303C38.0036 65.3303 37.2792 65.3303 36.5547 65.3303C37.6104 63.8196 38.7074 62.3503 39.8459 60.9017C43.9443 60.9017 48.0428 60.9017 52.1205 60.9017C52.1205 62.3917 52.1205 63.7575 52.1205 65.3096C49.1398 65.3096 46.304 65.3096 43.5096 65.3096C43.5096 66.8617 43.5096 68.2275 43.5096 69.7796C46.511 69.7796 49.3468 69.7796 52.3482 69.7796C52.3482 75.8017 52.3482 81.6375 52.3482 87.494C53.8592 87.494 55.1633 87.494 56.7157 87.494C56.7157 72.6561 56.7157 57.9217 56.7157 43.2079C56.7778 43.1458 56.8399 43.1044 56.902 43.0424C61.4351 43.0424 65.7199 43.0424 70.046 43.0424C70.046 44.5117 70.046 45.8154 70.046 47.3882C67.086 47.3882 64.1881 47.3882 61.2695 47.3882C61.2695 48.961 61.2695 50.2647 61.2695 51.6926C65.7199 51.6926 70.0874 51.6926 74.4342 51.6926C74.4342 47.2226 74.4342 42.8768 74.4342 38.5724C70.4186 38.5724 66.4443 38.5724 62.4494 38.5724C64.954 36.6685 67.5414 34.8681 70.1909 33.1711C70.1909 33.3781 70.1909 33.585 70.1909 33.7919C71.7226 33.7919 73.0681 33.7919 74.4756 33.7919C74.4756 32.7158 74.4756 31.619 74.4756 30.5429C75.9246 29.6944 77.4149 28.8667 78.9053 28.0803C78.9053 37.4549 78.9053 46.8501 78.9053 56.3075C72.9646 56.3075 67.1481 56.3075 61.3109 56.3075C61.3109 60.881 61.3109 65.2268 61.3109 69.7382C73.2337 69.7382 84.9908 69.7382 96.9964 69.7382C96.9964 75.7603 96.9964 81.6375 96.9964 87.4733C101.55 87.4733 105.876 87.4733 110.223 87.4733C110.223 86.004 110.223 84.6382 110.223 83.0861C107.242 83.0861 104.407 83.0861 101.488 83.0861C101.488 81.534 101.488 80.1682 101.488 78.7403C105.959 78.7403 110.327 78.7403 114.86 78.7403C114.86 81.6996 114.86 84.5554 114.86 87.5768C117.861 87.5768 120.697 87.5768 123.719 87.5768C123.719 93.5989 123.719 99.414 123.719 105.333C131.254 105.333 138.602 105.333 145.909 105.333C145.909 88.9219 145.909 72.6768 145.909 56.3903C138.457 56.3903 131.171 56.3903 123.843 56.3903C123.843 57.8803 123.843 59.2461 123.843 60.8189C129.805 60.8189 135.621 60.8189 141.479 60.8189C141.479 74.291 141.479 87.5561 141.479 100.821C136.987 100.821 132.64 100.821 128.149 100.821C128.149 94.8819 128.149 89.1082 128.149 83.0861C125.127 83.0861 122.229 83.0861 119.186 83.0861C119.186 80.0026 119.186 77.1675 119.186 74.1254C113.183 74.1254 107.367 74.1254 101.281 74.1254C101.281 62.1226 101.281 50.3268 101.281 38.5931C96.7273 38.5931 92.4218 38.5931 88.1164 38.5931C88.1164 43.0424 88.1164 47.3468 88.1164 51.6719C89.6068 51.6719 90.9729 51.6719 92.5046 51.6719C92.5046 48.7126 92.5046 45.8775 92.5046 43.0631C94.0571 43.0631 95.4232 43.0631 96.7894 43.0631C96.7894 50.4924 96.7894 57.7975 96.7894 65.144C95.3197 65.144 93.9536 65.144 92.4218 65.144C92.4218 62.1847 92.4218 59.3496 92.4218 56.4317C90.8901 56.4317 89.524 56.4317 87.9508 56.4317C87.9508 59.4117 87.9508 62.2468 87.9508 65.1647C80.4577 65.1647 73.1716 65.1647 65.7613 65.1647C65.7613 63.7161 65.7613 62.3503 65.7613 60.7361C71.7019 60.7361 77.4977 60.7361 83.5626 60.7361C83.5626 51.6926 83.5626 42.8768 83.5626 33.8333C92.6081 33.8333 101.426 33.8333 110.182 33.8333C110.182 28.0596 110.182 22.41 110.182 16.8018C111.734 16.4707 113.287 16.181 114.86 15.9119C114.86 21.8926 114.86 27.8319 114.86 33.8126C116.371 33.8126 117.737 33.8126 119.289 33.8126C119.289 30.8533 119.289 28.0182 119.289 25.0175C122.311 25.0175 125.168 25.0175 128.087 25.0175C128.087 21.4167 128.087 17.9193 128.087 14.4426C129.639 14.3599 131.212 14.2978 132.785 14.2771C132.785 14.8358 132.785 15.4153 132.785 15.974C140.34 15.974 147.854 15.974 155.327 15.974C162.923 17.2778 170.272 19.2851 177.309 21.934C177.309 24.4794 177.309 26.9628 177.309 29.5289C168.347 29.5289 159.57 29.5289 150.69 29.5289C150.69 31.0396 150.69 32.4054 150.69 34.0196C153.65 34.0196 156.548 34.0196 159.446 34.0196C159.446 35.5924 159.446 36.9168 159.446 38.3033C154.975 38.3033 150.566 38.3033 146.198 38.3033C146.198 33.8126 146.198 29.5082 146.198 24.9968C155.14 24.9968 163.938 24.9968 172.776 24.9968C172.776 23.424 172.776 22.0582 172.776 20.7131C162.344 20.7131 152.056 20.7131 141.645 20.7131C141.645 26.611 141.645 32.4054 141.645 38.5103C138.54 38.5103 135.704 38.5103 132.868 38.5103C132.868 40.0831 132.868 41.4489 132.868 43.0217C141.831 43.0217 150.628 43.0217 159.57 43.0217C159.57 49.0231 159.57 54.8175 159.57 60.6947C161.06 60.6947 162.427 60.6947 164 60.6947C164 51.7754 164 42.9596 164 33.9368C170.023 33.9368 175.86 33.9368 181.76 33.9368C181.76 30.4188 181.76 27.0249 181.76 23.6517C183.271 24.2932 184.761 24.9554 186.231 25.659C186.231 29.9221 186.231 34.1851 186.231 38.5517C180.207 38.5517 174.391 38.5517 168.554 38.5517C168.554 52.0031 168.554 65.2061 168.554 78.5126C170.023 78.5126 171.389 78.5126 172.983 78.5126C172.983 72.5733 172.983 66.7375 172.983 60.9637C174.577 60.9637 175.943 60.9637 177.289 60.9637C177.289 68.4137 177.289 75.6982 177.289 83.0033C172.797 83.0033 168.429 83.0033 163.896 83.0033C163.896 77.0433 163.896 71.2075 163.896 65.1854C160.874 65.1854 158.038 65.1854 155.016 65.1854C155.016 59.1633 155.016 53.3275 155.016 47.3054C146.012 47.3054 137.174 47.3054 128.314 47.3054C128.314 42.794 128.314 38.4689 128.314 33.8954C131.274 33.8954 134.172 33.8954 137.049 33.8954C137.049 29.3219 137.049 25.0175 137.049 20.6924C135.559 20.6924 134.214 20.6924 132.64 20.6924C132.64 23.6517 132.64 26.5075 132.64 29.5082C129.598 29.5082 126.762 29.5082 123.657 29.5082C123.657 32.5503 123.657 35.4475 123.657 38.4896C117.633 38.4896 111.838 38.4896 105.959 38.4896C105.959 48.9403 105.959 59.2254 105.959 69.6554C111.838 69.6554 117.613 69.6554 123.719 69.6554C123.719 72.7596 123.719 75.5947 123.719 78.5333C125.292 78.5333 126.658 78.5333 128.273 78.5333C128.273 75.5533 128.273 72.6561 128.273 69.821C129.846 69.821 131.171 69.821 132.723 69.821C132.723 78.7403 132.723 87.5354 132.723 96.3719C134.296 96.3719 135.662 96.3719 137.029 96.3719C137.029 85.9419 137.029 75.6775 137.029 65.2475C128.128 65.2475 119.352 65.2475 110.492 65.2475C110.492 57.7561 110.492 50.4303 110.492 43.0424C114.922 43.0424 119.227 43.0424 123.595 43.0424C123.595 44.5117 123.595 45.8775 123.595 47.4296C120.635 47.4296 117.799 47.4296 114.963 47.4296C114.963 51.9824 114.963 56.3282 114.963 60.674C116.454 60.674 117.82 60.674 119.352 60.674C119.352 57.6733 119.352 54.8382 119.352 51.941C129.805 51.941 140.092 51.941 150.649 51.941C150.649 57.901 150.649 63.7782 150.649 69.821C153.754 69.821 156.589 69.821 159.591 69.821C159.591 84.7624 159.591 99.4968 159.591 114.438C165.573 114.438 171.41 114.438 177.289 114.438C177.289 116.239 177.289 117.832 177.289 119.612C171.307 119.612 165.49 119.612 159.694 119.612C159.694 121.143 159.694 122.509 159.694 123.937C166.546 123.937 173.273 123.937 179.979 123.937C181.346 123.937 181.925 123.295 181.884 121.909C181.822 119.446 181.863 116.963 181.863 114.562C189.48 114.562 196.787 114.562 204.073 114.562C204.073 116.052 204.073 117.418 204.073 118.97C198.112 118.97 192.275 118.97 186.272 118.97C186.272 121.992 186.272 124.848 186.272 127.89C177.164 127.89 168.243 127.89 159.28 127.89C159.28 129.462 159.28 130.828 159.28 132.38C162.364 132.38 165.324 132.38 168.429 132.38C168.429 141.382 168.429 150.198 168.429 159.014C169.961 159.014 171.348 159.014 172.942 159.014C172.942 150.115 172.942 141.3 172.942 132.256C178.986 132.256 184.823 132.256 190.764 132.256C190.764 129.669 190.826 127.289 190.743 124.91C190.702 123.709 191.116 123.316 192.296 123.337C196.684 123.399 201.093 123.358 205.481 123.358C206.495 123.358 207.509 123.358 208.71 123.358C208.71 120.253 208.71 117.418 208.71 114.542C213.243 114.542 217.611 114.542 222.144 114.542C222.144 120.502 222.144 126.317 222.144 132.173C223.696 132.173 225.062 132.173 226.428 132.173C226.428 124.744 226.428 117.439 226.428 109.906C205.564 109.906 184.782 109.906 164.062 109.906C164.062 102.373 164.062 95.0682 164.062 87.5561C175.985 87.5561 187.783 87.5561 199.623 87.5561C199.623 80.044 199.623 72.7596 199.623 65.3924C195.152 65.3924 190.805 65.3924 186.376 65.3924C186.376 69.821 186.376 74.1254 186.376 78.5333C187.824 78.5333 189.191 78.5333 190.764 78.5333C190.764 75.574 190.764 72.7389 190.764 69.8417C192.337 69.8417 193.703 69.8417 195.111 69.8417C195.111 74.3117 195.111 78.6575 195.111 83.0654C190.66 83.0654 186.355 83.0654 181.967 83.0654C181.967 75.6154 181.967 68.2896 181.967 60.7361C187.928 60.7361 193.744 60.7361 199.623 60.7361C199.623 53.2447 199.623 45.9396 199.623 38.5931C198.153 38.5931 196.787 38.5931 195.214 38.5931C195.214 41.5524 195.214 44.4082 195.214 47.4296C189.17 47.4296 183.353 47.4296 177.537 47.4296C177.537 49.0024 177.537 50.3475 177.537 51.8582C183.457 51.8582 189.232 51.8582 195.131 51.8582C195.131 53.3689 195.131 54.7347 195.131 56.1419C187.68 56.1419 180.331 56.1419 173.025 56.1419C173.025 51.6926 173.025 47.3882 173.025 42.8561C178.965 42.8561 184.802 42.8561 190.805 42.8561C190.805 37.786 190.805 32.8814 190.805 27.9768C192.316 28.7632 193.807 29.591 195.255 30.4394C195.255 31.5776 195.255 32.6951 195.255 33.8333C196.849 33.8333 198.174 33.8333 199.582 33.8333C199.582 33.5643 199.582 33.316 199.582 33.0676C202.314 34.806 204.943 36.6478 207.509 38.5931C206.433 38.5931 205.336 38.5931 204.26 38.5931C204.26 43.0424 204.26 47.3468 204.26 51.7133C210.262 51.7133 216.224 51.7133 222.206 51.7133C223.634 53.224 225.042 54.7761 226.387 56.3489C218.997 56.3489 211.629 56.3489 204.301 56.3489C204.301 57.9631 204.301 59.3082 204.301 60.7154C212.87 60.7154 221.419 60.7154 229.947 60.7154C231.148 62.2468 232.286 63.7989 233.404 65.3717C232.576 65.3717 231.748 65.3717 230.92 65.3717C230.92 68.3103 230.92 71.1454 230.92 74.0633C229.368 74.0633 228.002 74.0633 226.449 74.0633C226.449 71.1247 226.449 68.2896 226.449 65.4131C218.915 65.4131 211.587 65.4131 204.032 65.4131C204.032 74.3738 204.032 83.1689 204.032 92.1296C192.068 92.1296 180.311 92.1296 168.471 92.1296C168.471 96.6203 168.471 100.987 168.471 105.353C169.961 105.353 171.327 105.353 172.88 105.353C172.88 102.373 172.88 99.5382 172.88 96.641C174.453 96.641 175.819 96.641 177.351 96.641C177.351 99.621 177.351 102.456 177.351 105.374C193.786 105.374 210.055 105.374 226.346 105.374C226.346 99.414 226.346 93.5989 226.346 87.7424C224.855 87.7424 223.51 87.7424 221.978 87.7424C221.978 92.171 221.978 96.4961 221.978 100.904C208.524 100.904 195.255 100.904 181.884 100.904C181.884 99.4347 181.884 98.0689 181.884 96.4961C190.805 96.4961 199.602 96.4961 208.627 96.4961C208.627 87.4733 208.627 78.6575 208.627 69.8831C213.202 69.8831 217.549 69.8831 221.916 69.8831C221.916 71.3524 221.916 72.6768 221.916 74.2289C218.935 74.2289 216.037 74.2289 213.14 74.2289C213.14 81.7824 213.14 89.0668 213.14 96.3926C214.63 96.3926 215.996 96.3926 217.611 96.3926C217.611 90.4533 217.611 84.6382 217.611 78.8231C219.204 78.8231 220.571 78.8231 222.082 78.8231C222.082 80.3131 222.082 81.6375 222.082 83.0447C223.593 83.0447 224.959 83.0447 226.511 83.0447C226.511 81.5547 226.511 80.1889 226.511 78.8024C228.064 78.8024 229.43 78.8024 230.982 78.8024C230.982 96.6824 230.982 114.417 230.982 132.339C236.985 132.339 242.822 132.339 248.846 132.339C248.846 141.341 248.846 150.157 248.846 159.159C250.233 159.159 251.578 159.159 252.923 159.159C252.696 160.483 252.365 161.932 252.013 163.381ZM253.462 154.42C253.462 144.031 253.462 133.746 253.462 123.192C253.958 123.192 254.455 123.192 254.952 123.192C255.304 126.938 255.49 130.745 255.49 134.595C255.49 141.341 254.931 147.963 253.855 154.42C253.731 154.42 253.586 154.42 253.462 154.42Z" fill="#DBA45E" fill-opacity="0.15"/>
<path d="M222.206 112.147H213.802H212.374C213.388 101.406 213.471 90.1486 212.602 78.4356L211.96 69.9094L204.55 65.6671C203.287 64.9428 173.004 47.8492 135.58 47.8492C135.394 47.8492 135.187 47.8492 135 47.8492C134.814 47.8492 134.607 47.8492 134.421 47.8492C96.9966 47.8492 66.7136 64.9428 65.451 65.6671L58.0407 69.9094L57.399 78.4149C56.5296 90.1279 56.5917 101.386 57.6267 112.126H56.4261H47.8153H42.9095V117.031V174.665V179.569H47.8153H56.4261H61.3318V174.665V172.988L62.8636 176.589L64.1262 179.569H67.376H76.8769H81.0996C83.6456 183.253 86.3572 186.771 89.2758 190.144C97.1001 199.188 106.042 206.886 115.833 213.012C123.202 217.606 128.439 219.654 129.412 220.027L135.042 222.117L140.672 220.027C141.645 219.654 146.882 217.626 154.251 213.012C164.041 206.886 172.983 199.188 180.808 190.144C183.726 186.771 186.438 183.253 188.984 179.569H193.062H201.465H206.371V174.665V166.49L210.159 176.403L211.36 179.549H214.734H222.289H227.195V174.644V117.051V112.147H222.206ZM56.4261 174.665H47.8153H56.4261ZM56.4261 141.429L60.5039 131.02L56.4261 141.429ZM73.6272 79.5324C73.503 79.5944 73.4409 79.6358 73.4409 79.6358C73.4409 79.6358 73.5237 79.5944 73.6272 79.5324ZM74.3309 174.665H67.3553L62.1805 162.496L67.3553 174.665H74.3309ZM74.6414 78.9943C74.6621 78.9943 74.6828 78.9736 74.7035 78.9736C74.7035 78.9736 74.7242 78.9529 74.7449 78.9529C74.7035 78.9529 74.6621 78.9736 74.6414 78.9943ZM75.2831 78.6425C75.3038 78.6218 75.3452 78.6218 75.3659 78.6011C75.3866 78.6011 75.4073 78.5804 75.428 78.5597C75.3866 78.6011 75.3452 78.6218 75.2831 78.6425ZM75.8006 78.3942C75.9248 78.3321 76.0697 78.27 76.1939 78.1872C76.1939 78.1872 76.2146 78.1872 76.2146 78.1665C76.0904 78.2493 75.9455 78.3114 75.8006 78.3942ZM77.0011 77.794C77.0632 77.7733 77.1046 77.7319 77.1667 77.7112C77.353 77.6285 77.5393 77.525 77.7463 77.4215C77.4772 77.5457 77.2288 77.6699 77.0011 77.794ZM78.9469 76.8628C79.1331 76.78 79.2987 76.6972 79.485 76.6144C79.5057 76.6144 79.5264 76.5937 79.5471 76.5937C79.3401 76.6765 79.1331 76.7593 78.9469 76.8628ZM80.2716 76.2419C80.4579 76.1592 80.6442 76.0764 80.8305 75.9936C80.8512 75.9729 80.8719 75.9729 80.9133 75.9522C80.6856 76.0557 80.4786 76.1592 80.2716 76.2419ZM85.8397 73.8621C86.0467 73.7793 86.2744 73.6965 86.5021 73.5931C86.5435 73.5724 86.5849 73.5724 86.6263 73.5517C86.3365 73.6758 86.0881 73.7586 85.8397 73.8621ZM97.3277 69.806C97.5554 69.7439 97.7624 69.6611 97.9901 69.599C98.0522 69.5783 98.1143 69.5576 98.1764 69.5369C97.8866 69.6404 97.5968 69.7232 97.3277 69.806ZM100.95 68.7506C101.178 68.6885 101.385 68.6264 101.612 68.5643C101.675 68.5436 101.737 68.5229 101.819 68.5022C101.509 68.585 101.24 68.6678 100.95 68.7506ZM110.12 66.5155C110.327 66.4742 110.534 66.4328 110.741 66.3914C110.824 66.3707 110.906 66.3707 110.969 66.35C110.679 66.3914 110.389 66.4535 110.12 66.5155ZM114.301 65.7292C114.508 65.6878 114.694 65.6671 114.901 65.6257C114.984 65.605 115.067 65.605 115.15 65.5843C114.86 65.6257 114.591 65.6671 114.301 65.7292ZM118.627 65.0462C118.814 65.0256 119.021 64.9842 119.207 64.9635C119.29 64.9428 119.372 64.9428 119.455 64.9221C119.186 64.9635 118.917 65.0049 118.627 65.0462ZM124.609 64.384C124.796 64.3633 124.982 64.3426 125.168 64.3426C125.251 64.3426 125.354 64.3219 125.437 64.3219C125.147 64.3219 124.878 64.3426 124.609 64.384ZM127.673 64.1564C127.859 64.1357 128.025 64.1357 128.211 64.115C128.294 64.115 128.397 64.115 128.48 64.0943C128.211 64.115 127.942 64.1357 127.673 64.1564ZM133.924 63.9494C134.09 63.9494 134.255 63.9494 134.421 63.9494C134.607 63.9494 134.814 63.9494 135 63.9494C134.628 63.9287 134.276 63.9494 133.924 63.9494ZM135 63.9494C135.187 63.9494 135.394 63.9494 135.58 63.9494C135.745 63.9494 135.911 63.9494 136.077 63.9494C135.725 63.9494 135.373 63.9287 135 63.9494ZM139.658 202.788C139.616 202.809 139.554 202.83 139.513 202.871C139.368 202.933 139.244 203.016 139.099 203.078C139.037 203.12 138.975 203.14 138.892 203.182C139.099 203.078 139.285 202.975 139.513 202.871C139.596 202.83 139.658 202.788 139.74 202.747C139.699 202.768 139.678 202.788 139.658 202.788ZM139.989 64.0322C140.072 64.0322 140.175 64.0322 140.258 64.0322C140.423 64.0322 140.589 64.0529 140.755 64.0529C140.506 64.0529 140.258 64.0322 139.989 64.0322ZM141.81 64.115C141.976 64.115 142.142 64.1357 142.307 64.1564C142.059 64.1357 141.79 64.1357 141.541 64.115C141.624 64.115 141.728 64.115 141.81 64.115ZM142.142 201.443C142.1 201.464 142.079 201.485 142.038 201.505C142.142 201.443 142.224 201.402 142.328 201.34C142.266 201.381 142.204 201.423 142.142 201.443ZM144.605 64.3012C144.688 64.3012 144.77 64.3219 144.853 64.3219C145.019 64.3426 145.184 64.3426 145.35 64.3633C145.102 64.3426 144.853 64.3219 144.605 64.3012ZM146.116 64.4461C146.199 64.4461 146.281 64.4668 146.364 64.4668C146.53 64.4875 146.695 64.5082 146.861 64.5082C146.613 64.4875 146.364 64.4668 146.116 64.4461ZM147.606 64.591C147.689 64.591 147.772 64.6117 147.834 64.6117C147.999 64.6324 148.165 64.653 148.331 64.6737C148.103 64.6324 147.854 64.6117 147.606 64.591ZM150.566 64.9428C150.628 64.9428 150.711 64.9635 150.794 64.9635C150.959 64.9842 151.125 65.0049 151.291 65.0256C151.042 65.0049 150.814 64.9635 150.566 64.9428ZM185.258 74.3174C185.258 74.3174 185.279 74.3174 185.279 74.3381C185.341 74.3587 185.382 74.3794 185.444 74.4001C185.382 74.3587 185.32 74.338 185.258 74.3174ZM186.914 75.0003C186.976 75.021 187.017 75.0417 187.059 75.0624C186.997 75.0417 186.955 75.021 186.914 75.0003ZM191.737 77.1732C191.737 77.1732 191.757 77.1732 191.737 77.1732C191.778 77.1939 191.799 77.1939 191.82 77.2146C191.799 77.1939 191.778 77.1939 191.737 77.1732ZM192.316 77.4422C192.337 77.4629 192.358 77.4629 192.378 77.4629C192.358 77.4629 192.337 77.4629 192.316 77.4422ZM192.834 77.7112C192.855 77.7319 192.875 77.7319 192.896 77.7526C192.875 77.7319 192.855 77.7112 192.834 77.7112ZM195.608 79.1185C195.628 79.1185 195.628 79.1392 195.649 79.1392C195.628 79.1185 195.608 79.1185 195.608 79.1185ZM194.241 78.3942C194.262 78.3942 194.262 78.4149 194.283 78.4149C194.262 78.4149 194.241 78.4149 194.241 78.3942ZM193.807 78.1872C193.807 78.1872 193.827 78.1872 193.827 78.2079C193.827 78.1872 193.807 78.1872 193.807 78.1872ZM201.403 174.665H192.999V173.257V174.665H201.403ZM204.653 148.403L206.123 152.273L204.653 148.403ZM214.051 150.907C214.051 150.845 214.03 150.804 214.03 150.742C214.03 150.804 214.051 150.866 214.051 150.907ZM214.113 151.259C214.113 151.321 214.133 151.383 214.133 151.446C214.133 151.363 214.113 151.301 214.113 151.259ZM214.216 151.88C214.216 151.922 214.237 151.942 214.237 151.984C214.237 151.942 214.237 151.922 214.216 151.88ZM214.361 152.584V152.563C214.361 152.563 214.361 152.563 214.361 152.584ZM222.206 174.665H214.651H222.206Z" fill="#C7C6B2"/>
<path d="M135.58 47.8492C173.004 47.8492 203.287 64.9428 204.55 65.6671L211.96 69.9094L212.602 78.4356C213.471 90.1486 213.409 101.406 212.374 112.147H213.802H222.206H227.112V117.051V174.685V179.59H222.206H214.651H211.277L210.076 176.444L206.288 166.532V174.706V179.611H201.403H192.999H188.922C186.376 183.294 183.664 186.812 180.746 190.186C172.921 199.229 163.979 206.927 154.188 213.053C146.82 217.647 141.583 219.696 140.61 220.068L134.98 222.158L129.349 220.068C128.377 219.696 123.14 217.668 115.771 213.053C105.98 206.927 97.038 199.229 89.2137 190.186C86.2951 186.812 83.5835 183.294 81.0375 179.611H76.8149H67.3139H64.0642L62.8015 176.631L61.2698 173.03V174.706V179.611H56.364H47.7532H42.8475V174.706V117.051V112.147H47.7532H56.364H57.5646C56.5503 101.406 56.4675 90.1486 57.3369 78.4356L57.9786 69.9301L65.3889 65.6878C66.6516 64.9635 96.9345 47.8699 134.359 47.8699C134.545 47.8699 134.752 47.8699 134.938 47.8699C135.207 47.8492 135.394 47.8492 135.58 47.8492ZM135 63.9494C135.104 63.9494 135.187 63.9494 135.29 63.9494C135.559 63.9494 135.808 63.9494 136.077 63.9494C135.911 63.9494 135.745 63.9494 135.58 63.9494C135.394 63.9287 135.207 63.9287 135 63.9494ZM133.924 63.9494C134.193 63.9494 134.462 63.9494 134.711 63.9494C134.814 63.9494 134.897 63.9494 135 63.9494C134.814 63.9494 134.607 63.9494 134.421 63.9494C134.255 63.9287 134.09 63.9494 133.924 63.9494ZM140.775 64.0529C140.61 64.0529 140.444 64.0322 140.279 64.0322C140.196 64.0322 140.092 64.0322 140.01 64.0322C140.258 64.0322 140.506 64.0529 140.775 64.0529ZM127.673 64.1564C127.942 64.1357 128.211 64.115 128.48 64.115C128.397 64.115 128.294 64.115 128.211 64.1357C128.025 64.115 127.838 64.1357 127.673 64.1564ZM142.307 64.1357C142.142 64.1357 141.976 64.115 141.81 64.0943C141.728 64.0943 141.645 64.0943 141.541 64.0736C141.79 64.115 142.059 64.1357 142.307 64.1357ZM124.609 64.384C124.878 64.3633 125.168 64.3426 125.437 64.3219C125.354 64.3219 125.251 64.3426 125.168 64.3426C124.982 64.3426 124.796 64.3633 124.609 64.384ZM145.35 64.3633C145.184 64.3426 145.019 64.3426 144.853 64.3219C144.77 64.3219 144.688 64.3012 144.605 64.3012C144.853 64.3219 145.102 64.3426 145.35 64.3633ZM146.861 64.5082C146.695 64.4875 146.53 64.4668 146.364 64.4668C146.281 64.4668 146.199 64.4461 146.116 64.4461C146.364 64.4668 146.613 64.4875 146.861 64.5082ZM148.351 64.6737C148.186 64.6531 148.02 64.6324 147.855 64.6117C147.772 64.6117 147.689 64.591 147.627 64.591C147.855 64.6117 148.103 64.6324 148.351 64.6737ZM118.627 65.0462C118.896 65.0049 119.186 64.9635 119.455 64.9428C119.372 64.9635 119.29 64.9635 119.207 64.9842C119.021 64.9842 118.834 65.0256 118.627 65.0462ZM151.291 65.0256C151.125 65.0049 150.959 64.9842 150.794 64.9635C150.732 64.9635 150.649 64.9428 150.566 64.9428C150.815 64.9635 151.042 65.0049 151.291 65.0256ZM114.301 65.7292C114.591 65.6878 114.86 65.6257 115.15 65.5843C115.067 65.605 114.984 65.605 114.901 65.6257C114.694 65.6464 114.508 65.6878 114.301 65.7292ZM110.12 66.5156C110.41 66.4535 110.679 66.3914 110.969 66.35C110.886 66.3707 110.803 66.3707 110.741 66.3914C110.513 66.4328 110.327 66.4742 110.12 66.5156ZM100.95 68.7506C101.24 68.6678 101.509 68.585 101.799 68.5229C101.737 68.5436 101.675 68.5643 101.592 68.585C101.385 68.6264 101.157 68.6885 100.95 68.7506ZM97.3278 69.806C97.6176 69.7232 97.8867 69.6404 98.1764 69.5369C98.1143 69.5576 98.0522 69.5783 97.9901 69.599C97.7625 69.6818 97.5348 69.7439 97.3278 69.806ZM85.8397 73.8621C86.0881 73.7586 86.3572 73.6551 86.6056 73.5517C86.5642 73.5724 86.5228 73.5724 86.4814 73.5931C86.2744 73.6965 86.0467 73.7793 85.8397 73.8621ZM185.444 74.3794C185.382 74.3587 185.341 74.3381 185.279 74.3174C185.279 74.3174 185.258 74.3174 185.258 74.2967C185.32 74.3381 185.382 74.3587 185.444 74.3794ZM187.059 75.0624C187.017 75.0417 186.976 75.021 186.935 75.0003H186.914C186.955 75.021 186.997 75.0417 187.059 75.0624ZM80.2923 76.2419C80.2923 76.2419 80.2716 76.2419 80.2716 76.2626C80.2716 76.2419 80.2923 76.2419 80.2923 76.2419C80.4993 76.1592 80.6856 76.0557 80.8926 75.9729C80.8719 75.9936 80.8512 75.9936 80.8098 76.0143C80.6442 76.0764 80.4786 76.1592 80.2923 76.2419ZM78.9469 76.8628C79.1332 76.78 79.3402 76.6765 79.5472 76.5731C79.5265 76.5731 79.5058 76.5938 79.4851 76.5938C79.2988 76.6972 79.1125 76.78 78.9469 76.8628ZM191.82 77.2146C191.799 77.1939 191.778 77.1939 191.758 77.1732C191.778 77.1939 191.799 77.1939 191.82 77.2146ZM77.0012 77.794C77.2288 77.6699 77.4772 77.5664 77.7463 77.4422C77.5393 77.5457 77.353 77.6285 77.1667 77.7319C77.1046 77.7319 77.0633 77.7526 77.0012 77.794ZM192.337 77.4629H192.358C192.358 77.4629 192.358 77.4629 192.337 77.4629C192.316 77.4629 192.316 77.4422 192.296 77.4422C192.316 77.4629 192.337 77.4629 192.337 77.4629ZM192.834 77.7112C192.855 77.7319 192.875 77.7319 192.896 77.7526C192.875 77.7319 192.875 77.7112 192.834 77.7112ZM75.9041 78.3321C75.8834 78.3528 75.842 78.3735 75.8213 78.3735C75.842 78.3735 75.8627 78.3528 75.9041 78.3321C76.0076 78.27 76.1318 78.2286 76.2353 78.1665C76.2353 78.1665 76.2146 78.1665 76.2146 78.1872C76.0904 78.2286 75.9869 78.2907 75.9041 78.3321ZM193.807 78.1872C193.807 78.1872 193.827 78.1872 193.827 78.2079C193.827 78.1872 193.807 78.1872 193.807 78.1872ZM194.262 78.4149C194.241 78.4149 194.241 78.3942 194.221 78.3942C194.241 78.4149 194.262 78.4149 194.262 78.4149ZM75.4487 78.5804C75.428 78.5804 75.4487 78.5804 75.4487 78.5804C75.428 78.6011 75.4073 78.6011 75.3866 78.6218C75.3659 78.6425 75.3245 78.6425 75.3038 78.6632C75.3452 78.6218 75.3866 78.6011 75.4487 78.5804C75.4487 78.5804 75.428 78.5804 75.4487 78.5804ZM74.7242 78.9322C74.7242 78.9529 74.7242 78.9529 74.7242 78.9322C74.7035 78.9322 74.7035 78.9529 74.6828 78.9529C74.6621 78.9529 74.6414 78.9736 74.6414 78.9736C74.6828 78.9736 74.7035 78.9529 74.7242 78.9322C74.7242 78.9529 74.7242 78.9529 74.7242 78.9322ZM195.608 79.1185C195.628 79.1185 195.649 79.1392 195.649 79.1392C195.628 79.1185 195.608 79.1185 195.608 79.1185ZM73.4616 79.6358C73.4616 79.6358 73.5237 79.5944 73.6479 79.5324C73.5237 79.5944 73.4616 79.6358 73.4616 79.6358ZM56.4261 141.429L60.5039 131.02L56.4261 141.429ZM206.123 152.273L204.653 148.403L206.123 152.273ZM214.03 150.845C214.03 150.866 214.03 150.887 214.051 150.908C214.051 150.887 214.051 150.866 214.03 150.845C214.03 150.804 214.009 150.783 214.009 150.742C214.03 150.783 214.03 150.804 214.03 150.845ZM214.133 151.425C214.113 151.363 214.113 151.301 214.113 151.239C214.113 151.301 214.133 151.363 214.133 151.425ZM214.237 151.984C214.237 151.942 214.216 151.922 214.216 151.88C214.237 151.922 214.237 151.942 214.237 151.984ZM214.361 152.584C214.361 152.563 214.361 152.563 214.361 152.563C214.361 152.563 214.361 152.563 214.361 152.584ZM67.3553 174.665H74.331H67.3553L62.1805 162.496L67.3553 174.665ZM192.999 174.665H201.403H192.999V173.257V174.665ZM214.651 174.665H222.206H214.651ZM47.7946 174.665H56.4054H47.7946ZM142.328 201.34C142.266 201.381 142.204 201.402 142.142 201.443C142.1 201.464 142.079 201.485 142.038 201.505C142.142 201.443 142.224 201.402 142.328 201.34ZM139.72 202.747C139.699 202.768 139.678 202.768 139.637 202.788C139.596 202.809 139.533 202.83 139.492 202.871C139.492 202.871 139.492 202.871 139.471 202.871C139.264 202.975 139.057 203.078 138.871 203.182C138.933 203.14 138.995 203.12 139.078 203.078C139.202 203.016 139.347 202.954 139.471 202.871C139.471 202.871 139.471 202.871 139.492 202.871C139.575 202.83 139.658 202.788 139.72 202.747ZM135.58 44C135.394 44 135.187 44 135 44C134.814 44 134.607 44 134.421 44C95.9823 44 64.8507 61.5903 63.526 62.3353L56.1157 66.5776L54.3355 67.5917L54.1906 69.6197L53.549 78.1251C52.7624 88.4724 52.721 98.5919 53.4248 108.277H47.7946H42.8889H39.0388V112.126V117.031V174.665V179.569V183.418H42.8889H47.7946H56.4054H61.3112H65.1612H67.3553H76.8563H79.0711C81.3687 186.647 83.8112 189.751 86.3365 192.669C94.4092 202.002 103.641 209.949 113.763 216.281C121.442 221.082 126.99 223.255 128.025 223.628L133.655 225.718L135 226.215L136.346 225.718L141.976 223.628C143.011 223.235 148.558 221.062 156.238 216.281C166.36 209.949 175.591 202.002 183.664 192.669C186.189 189.751 188.632 186.647 190.93 183.418H192.999H201.403H206.309H210.159H211.298H214.672H222.227H227.132H230.983V179.569V174.665V117.051V112.147V108.298H227.132H222.227H216.597C217.3 98.6126 217.259 88.4931 216.472 78.1458L215.831 69.6197L215.686 67.5917L213.906 66.5776L206.495 62.3353C205.171 61.5696 174.039 44 135.58 44Z" fill="#CBA262"/>
<path d="M196.56 79.6358C196.56 79.6358 168.843 63.7632 135 63.9495C101.157 63.7632 73.4408 79.6358 73.4408 79.6358C65.9684 179.197 135 204.941 135 204.941C135 204.941 204.032 179.197 196.56 79.6358Z" fill="#0A1221"/>
<path d="M135.58 63.9287C169.154 63.9287 196.539 79.6151 196.539 79.6151C204.011 179.176 134.979 204.92 134.979 204.92C134.979 204.92 65.9683 179.197 73.4614 79.6358C73.4614 79.6358 100.846 63.9494 134.421 63.9494C134.607 63.9494 134.814 63.9494 135 63.9494C135.207 63.9287 135.393 63.9287 135.58 63.9287ZM135.58 47.8492C135.393 47.8492 135.186 47.8492 135 47.8492C134.814 47.8492 134.607 47.8492 134.421 47.8492C96.9964 47.8492 66.7134 64.9428 65.4508 65.6671L58.0405 69.9094L57.3988 78.4149C55.5359 103.248 57.9577 126.074 64.6228 146.251C70.0874 162.807 78.3671 177.562 89.2342 190.144C97.0585 199.188 106.001 206.886 115.791 213.012C123.16 217.606 128.397 219.654 129.37 220.027L135 222.117L140.63 220.027C141.603 219.654 146.84 217.626 154.209 213.012C164 206.886 172.942 199.188 180.766 190.144C191.633 177.562 199.913 162.807 205.377 146.251C212.043 126.074 214.464 103.248 212.601 78.4149L211.96 69.8887L204.549 65.6464C203.287 64.9428 173.025 47.8492 135.58 47.8492Z" fill="#0A1221"/>
<path d="M196.56 79.6358C196.56 79.6358 168.843 63.7632 135 63.9494C101.157 63.7632 73.4408 79.6358 73.4408 79.6358C65.9684 179.197 135 204.941 135 204.941C135 204.941 204.032 179.197 196.56 79.6358Z" fill="#0A1221"/>
<path d="M135.58 63.9287C169.154 63.9287 196.539 79.6151 196.539 79.6151C204.011 179.176 134.98 204.92 134.98 204.92C134.98 204.92 65.9685 179.197 73.4616 79.6358C73.4616 79.6358 100.847 63.9494 134.421 63.9494C134.607 63.9494 134.814 63.9494 135 63.9494C135.207 63.9287 135.394 63.9287 135.58 63.9287ZM135.58 53.0849C135.394 53.0849 135.187 53.0849 135 53.0849C134.814 53.0849 134.607 53.0849 134.421 53.0849C98.3627 53.0849 69.2803 69.5162 68.0591 70.2199L63.0706 73.0757L62.6359 78.8081C60.8144 102.958 63.1741 125.081 69.6115 144.596C74.8484 160.489 82.7969 174.644 93.2086 186.688C111.134 207.424 130.384 214.771 131.212 215.081L135 216.488L138.788 215.081C139.596 214.771 158.846 207.445 176.792 186.688C187.204 174.644 195.152 160.468 200.389 144.596C206.827 125.081 209.186 102.938 207.365 78.8081L206.93 73.0757L201.942 70.2199C200.72 69.5162 171.638 53.0849 135.58 53.0849Z" fill="#ADADAD"/>
<path d="M196.56 79.6358C196.56 79.6358 168.843 63.7632 135 63.9494C101.157 63.7632 73.4408 79.6358 73.4408 79.6358C65.9684 179.197 135 204.941 135 204.941C135 204.941 204.032 179.197 196.56 79.6358Z" fill="#0A1221"/>
<path d="M135.58 63.9288C169.154 63.9288 196.539 79.6152 196.539 79.6152C204.011 179.176 134.98 204.92 134.98 204.92C134.98 204.92 65.9684 179.197 73.4615 79.6358C73.4615 79.6358 100.847 63.9495 134.421 63.9495C134.607 63.9495 134.814 63.9495 135 63.9495C135.207 63.9288 135.394 63.9288 135.58 63.9288ZM135.58 57.9895C135.394 57.9895 135.187 57.9895 135 57.9895C134.814 57.9895 134.607 57.9895 134.421 57.9895C116.226 57.9895 99.8737 62.4388 89.3585 66.1845C77.9325 70.2406 70.7913 74.2967 70.5015 74.4829L67.7692 76.0557L67.5415 79.2013C65.7821 102.689 68.0383 124.191 74.2895 143.085C79.3401 158.358 86.9574 171.954 96.9551 183.522C114.073 203.327 132.185 210.238 132.951 210.528L135.021 211.294L137.091 210.528C137.857 210.238 155.969 203.327 173.087 183.522C183.084 171.954 190.702 158.358 195.752 143.085C202.004 124.191 204.26 102.689 202.5 79.2013L202.273 76.0557L199.54 74.4829C199.251 74.3174 192.089 70.2406 180.683 66.1845C170.127 62.4388 153.774 57.9895 135.58 57.9895Z" fill="#7F7E7C"/>
<path d="M196.56 79.6358C196.56 79.6358 168.843 63.7632 135 63.9495C101.157 63.7632 73.4409 79.6358 73.4409 79.6358C65.9685 179.197 135 204.941 135 204.941C135 204.941 204.032 179.197 196.56 79.6358Z" fill="#0A1221"/>
<path d="M154.665 128.537H140.61C137.815 128.537 136.429 129.944 136.429 132.779V142.857H143.197V134.455H152.077V144.182L143.611 149.893V151.342L152.077 157.157V168.746H143.197V159.827H136.408V170.464C136.408 173.278 137.774 174.685 140.506 174.685H154.644C157.418 174.685 158.804 173.278 158.804 170.464V157.53C158.804 155.688 158.059 154.301 156.569 153.37L152.243 150.659L156.507 147.886C158.039 146.893 158.804 145.465 158.804 143.644V132.8C158.804 129.944 157.418 128.537 154.665 128.537Z" fill="white"/>
<path d="M154.664 128.537C157.438 128.537 158.825 129.944 158.825 132.779V143.623C158.825 145.444 158.059 146.872 156.527 147.865L152.263 150.638L156.589 153.349C158.08 154.281 158.825 155.667 158.825 157.509V170.443C158.825 173.257 157.438 174.665 154.664 174.665H140.527C137.795 174.665 136.428 173.257 136.428 170.443V159.806H143.197V168.725H152.077V157.137L143.611 151.321V149.873L152.077 144.161V134.435H143.197V142.837H136.408V132.758C136.408 129.923 137.795 128.516 140.589 128.516H154.664V128.537ZM154.664 123.632H140.61C135.083 123.632 131.523 127.212 131.523 132.779V142.857V147.762H136.428H138.726V149.914V151.363V153.95L140.154 154.922H136.408H131.502V159.827V170.464C131.502 176.01 135.042 179.569 140.506 179.569H154.644C160.15 179.569 163.689 175.989 163.689 170.464V157.53C163.689 154.777 162.716 152.377 160.895 150.597C162.716 148.776 163.689 146.375 163.689 143.664V132.821C163.71 127.212 160.15 123.632 154.664 123.632Z" fill="#0A1221"/>
<path d="M66.5273 138.346L75.5936 117.051H75.428H65.9891L56.4261 141.429V117.051H47.7946V174.665H56.4261V162.041L59.1998 155.502L63.7329 144.865L66.5273 138.346Z" fill="white"/>
<path d="M75.5936 117.051L66.5066 138.346L63.733 144.865L59.1998 155.502L56.4261 162.041V174.665H47.8153V117.051H56.4261V141.429L66.0099 117.051H75.428H75.5936ZM83.0039 112.147H75.5936H75.428H66.0099H62.6773L61.456 115.251L61.3318 115.541V112.147H56.4261H47.8153H42.9095V117.051V174.685V179.59H47.8153H56.4261H61.3318V174.685V163.055L63.733 157.447L68.2661 146.81L71.0398 140.291L80.1267 118.997L83.0039 112.147Z" fill="#0A1221"/>
<path d="M183.354 128.537H179.876V134.455H180.642V168.725H171.182V134.455H171.948V128.537H168.388C165.656 128.537 164.29 129.944 164.29 132.779V170.443C164.29 173.257 165.656 174.665 168.388 174.665H183.354C186.148 174.665 187.535 173.257 187.535 170.443V132.779C187.535 129.944 186.148 128.537 183.354 128.537Z" fill="#CBA262"/>
<path d="M183.353 128.537C186.148 128.537 187.535 129.944 187.535 132.779V170.443C187.535 173.257 186.148 174.665 183.353 174.665H168.388C165.656 174.665 164.29 173.257 164.29 170.443V132.779C164.29 129.944 165.656 128.537 168.388 128.537H171.948V134.455H171.182V168.725H180.642V134.455H179.876V128.537H183.353ZM183.353 123.632H179.876H176.854H171.948H168.388C162.923 123.632 159.384 127.212 159.384 132.779V170.443C159.384 175.989 162.923 179.549 168.388 179.549H183.353C188.88 179.549 192.44 175.968 192.44 170.443V132.779C192.44 127.212 188.859 123.632 183.353 123.632Z" fill="#0A1221"/>
<path d="M113.68 156.971C113.97 155.564 114.115 154.446 114.115 153.639V128.537H107.388V174.644H113.432L124.485 145.61C124.195 147.017 124.05 148.134 124.05 148.942V174.644H130.778V128.537H124.734L113.68 156.971Z" fill="white"/>
<path d="M130.757 128.537V174.644H124.03V148.942C124.03 148.134 124.175 147.017 124.464 145.61L113.432 174.644H107.387V128.537H114.115V153.639C114.115 154.446 113.97 155.564 113.68 156.971L124.733 128.537H130.757ZM135.663 123.632H130.757H124.713H121.359L120.138 126.757L119 129.696V128.537V123.632H114.094H107.367H102.461V128.537V174.644V179.549H107.367H113.411H116.785L117.985 176.382L119.124 173.423V174.644V179.549H124.03H130.757H135.663V174.644V128.537V123.632Z" fill="#0A1221"/>
<path d="M178.034 134.455V128.537V123.198H173.77V128.537V134.455V137.601H178.034V134.455Z" fill="#CBA262"/>
<path d="M178.034 123.198V128.516V134.435V137.58H173.77V134.435V128.516V123.198H178.034ZM182.94 118.314H178.034H173.77H168.864V123.218V128.537V134.455V137.601V142.506H173.77H178.034H182.94V137.601V134.455V128.537V123.218V118.314Z" fill="#0A1221"/>
<path d="M62.1805 162.496L67.3553 174.665H76.8563L66.7758 151.735L62.1805 162.496Z" fill="#C7C6B2"/>
<path d="M66.7758 151.735L76.877 174.665H67.376L62.1805 162.496L66.7758 151.735ZM66.693 139.422L62.2633 149.831L57.6681 160.593L56.8608 162.496L57.6681 164.421L62.8429 176.589L64.1056 179.569H67.3553H76.8563H84.3701L81.348 172.699L71.2468 149.769L66.693 139.422Z" fill="#0A1221"/>
<path d="M100.267 152.936C100.122 152.791 98.9008 152.004 96.5618 150.576C98.818 149.19 100.019 148.424 100.163 148.3C101.136 147.431 101.633 146.21 101.633 144.637V132.758C101.633 129.923 100.267 128.516 97.5347 128.516H79.2366V174.623H97.6589C99.9772 174.623 101.882 172.74 101.882 170.402V156.702C101.861 155.129 101.343 153.846 100.267 152.936ZM86.1294 134.331H94.761V145.506L91.4284 147.865H86.1294V134.331ZM94.9473 168.85H86.1294V153.474H91.5526L94.9473 155.709V168.85Z" fill="white"/>
<path d="M97.5349 128.537C100.267 128.537 101.633 129.944 101.633 132.779V144.658C101.633 146.231 101.137 147.452 100.164 148.321C100.019 148.445 98.8182 149.19 96.562 150.597C98.901 152.025 100.143 152.811 100.267 152.956C101.323 153.887 101.861 155.15 101.861 156.764V170.464C101.861 172.782 99.9774 174.685 97.6383 174.685H79.2161V128.537H97.5349ZM86.1296 147.865H91.4286L94.7612 145.506V134.331H86.1296V147.865ZM86.1296 168.85H94.9475V155.709L91.5528 153.474H86.1296V168.85ZM97.5349 123.632H79.2368H74.3311V128.537V174.644V179.549H79.2368H97.659C102.689 179.549 106.767 175.451 106.767 170.443V156.743C106.767 154.343 106.063 152.232 104.717 150.535C105.69 149.19 106.518 147.286 106.518 144.658V132.779C106.539 127.212 102.999 123.632 97.5349 123.632Z" fill="#0A1221"/>
<path d="M213.802 117.051V148.424C213.802 149.438 213.988 150.825 214.361 152.584L200.555 117.051H192.999V117.858L200.865 138.47L214.651 174.665H222.206V117.051H213.802Z" fill="#CBA262"/>
<path d="M222.206 117.051V174.685H214.651L200.865 138.491L192.999 117.879V117.072H200.555L214.361 152.604C213.988 150.845 213.802 149.459 213.802 148.445V117.051H222.206ZM227.112 112.147H222.206H213.802H208.896V117.051V125.039L205.108 115.292L203.887 112.168H200.534H192.979H188.073V117.072V117.879V118.79L188.404 119.638L196.27 140.25L210.056 176.444L211.256 179.59H214.63H222.185H227.091V174.685V117.051V112.147H227.112Z" fill="#0A1221"/>
<path d="M102.503 179.549H94.078L103.393 176.362L102.503 179.549Z" fill="#0A1221"/>
<path d="M192.999 174.665H201.403V155.295L192.999 133.255V174.665Z" fill="#CBA262"/>
<path d="M192.999 133.255L201.403 155.295V174.685H192.999V133.255ZM188.094 106.642V133.255V174.665V179.569H192.999H201.403H206.309V174.665V155.274V154.363L205.978 153.515L197.574 131.475L188.094 106.642Z" fill="#0A1221"/>
<path d="M112.997 182.446V184.681H116.702V186.15H112.997V188.385H117.447V189.875H111.507V180.956H117.447V182.446H112.997Z" fill="#CBA262"/>
<path d="M117.468 180.955V182.445H113.018V184.68H116.723V186.149H113.018V188.384H117.468V189.874H111.527V180.955H117.468ZM121.318 177.106H117.468H111.527H107.677V180.955V189.874V193.724H111.527H117.468H121.318V189.874V188.384V186.294V182.445V180.955V177.106Z" fill="#0A1221"/>
<path d="M119 187.412H120.49C120.511 188.157 121.132 188.53 121.794 188.53C122.477 188.53 123.098 188.075 123.098 187.392C123.098 186.647 122.394 186.192 121.794 186.15C121.711 186.15 121.111 186.15 120.449 185.86C119.517 185.426 119 184.639 119 183.584C119 181.887 120.345 180.852 121.794 180.852C123.326 180.852 124.526 181.887 124.547 183.418H123.077C123.057 182.673 122.477 182.342 121.794 182.342C121.09 182.342 120.49 182.756 120.49 183.584C120.49 184.329 121.132 184.722 121.794 184.722C121.856 184.722 122.477 184.722 123.119 185.012C124.071 185.447 124.568 186.336 124.568 187.392C124.568 189.089 123.222 190.02 121.794 190.02C120.262 189.979 119.02 189.068 119 187.412Z" fill="#CBA262"/>
<path d="M121.794 180.832C123.326 180.832 124.526 181.866 124.547 183.398H123.077C123.057 182.653 122.477 182.322 121.794 182.322C121.09 182.322 120.49 182.736 120.49 183.563C120.49 184.308 121.132 184.702 121.794 184.702C121.856 184.702 122.477 184.702 123.119 184.991C124.071 185.426 124.568 186.316 124.568 187.371C124.568 189.068 123.222 189.999 121.794 189.999C120.262 189.958 119.02 189.068 119 187.392H120.49C120.511 188.137 121.132 188.509 121.794 188.509C122.477 188.509 123.098 188.054 123.098 187.371C123.098 186.626 122.394 186.171 121.794 186.129C121.711 186.129 121.111 186.129 120.449 185.84C119.517 185.405 119 184.619 119 183.563C119 181.866 120.345 180.832 121.794 180.832ZM121.794 176.982C118.068 176.982 115.15 179.859 115.15 183.563H115.088L115.15 187.475C115.212 191.075 117.965 193.766 121.691 193.869H121.732H121.773C125.561 193.869 128.397 191.075 128.397 187.392C128.397 187.35 128.397 187.309 128.397 187.268H128.438L128.376 183.356C128.335 179.714 125.499 176.982 121.794 176.982Z" fill="#0A1221"/>
<path d="M131.026 182.322H129.163V189.875H127.693V182.322H125.831V180.956H131.047V182.322H131.026Z" fill="#CBA262"/>
<path d="M131.026 180.956V182.322H129.163V189.875H127.693V182.322H125.83V180.956H131.026ZM134.876 177.107H131.026H125.81H121.96V180.956V182.322V186.171H123.823V189.875V193.724H127.673H129.142H132.992V189.875V186.171H134.855V182.322V180.956V177.107H134.876Z" fill="#0A1221"/>
<path d="M133.51 189.172C133.51 189.606 133.158 189.958 132.703 189.958C132.268 189.958 131.916 189.606 131.916 189.172C131.916 188.716 132.268 188.364 132.703 188.364C133.158 188.344 133.51 188.716 133.51 189.172Z" fill="#CBA262"/>
<path d="M132.702 188.344C133.158 188.344 133.51 188.716 133.51 189.151C133.51 189.585 133.158 189.937 132.702 189.937C132.268 189.937 131.916 189.585 131.916 189.151C131.916 188.716 132.268 188.344 132.702 188.344ZM132.702 184.495C130.136 184.495 128.066 186.585 128.066 189.151C128.066 191.717 130.156 193.786 132.702 193.786C135.269 193.786 137.36 191.696 137.36 189.151C137.36 186.585 135.269 184.495 132.702 184.495Z" fill="#0A1221"/>
<path d="M139.844 189.875H134.648V188.53L137.836 184.143C138.56 183.149 138.002 182.342 137.236 182.342C136.698 182.342 136.118 182.653 136.118 183.418H134.71C134.71 181.991 135.497 180.852 137.215 180.852C138.995 180.852 140.63 182.715 139.078 184.867L136.428 188.385H139.823V189.875H139.844Z" fill="#CBA262"/>
<path d="M137.256 180.852C139.037 180.852 140.672 182.715 139.119 184.867L136.47 188.385H139.865V189.875H134.669V188.53L137.857 184.143C138.581 183.149 138.022 182.342 137.256 182.342C136.718 182.342 136.139 182.653 136.139 183.418H134.731C134.731 181.991 135.518 180.852 137.256 180.852ZM137.256 177.003C133.572 177.003 130.902 179.693 130.902 183.418V187.164L130.819 187.288V188.551V189.896V193.745H134.669H139.865H143.715V189.896V188.406V184.557H143.445C143.756 183.17 143.611 181.722 142.949 180.438C141.872 178.348 139.637 177.003 137.256 177.003Z" fill="#0A1221"/>
<path d="M141.748 187.392V183.439C141.748 180.066 146.944 180.066 146.944 183.439V187.392C146.944 190.765 141.748 190.765 141.748 187.392ZM143.239 183.315V187.475C143.239 188.944 145.453 188.923 145.453 187.475V183.315C145.453 181.866 143.239 181.887 143.239 183.315Z" fill="#CBA262"/>
<path d="M144.335 180.894C145.64 180.894 146.944 181.742 146.944 183.418V187.371C146.944 189.068 145.64 189.896 144.335 189.896C143.031 189.896 141.727 189.047 141.727 187.371V183.418C141.748 181.742 143.052 180.894 144.335 180.894ZM144.335 188.571C144.894 188.571 145.453 188.199 145.453 187.475V183.315C145.453 182.591 144.894 182.239 144.356 182.239C143.797 182.239 143.238 182.611 143.238 183.315V187.475C143.238 188.199 143.777 188.571 144.335 188.571ZM144.335 177.045C140.651 177.045 137.877 179.797 137.877 183.418V187.371C137.877 191.013 140.651 193.745 144.335 193.745C148.02 193.745 150.794 190.993 150.794 187.371V183.418C150.794 179.797 148.02 177.045 144.335 177.045Z" fill="#0A1221"/>
<path d="M151.518 189.875H150.028V182.653L148.703 183.129L148.207 182.053L150.256 180.935H151.518V189.875Z" fill="#CBA262"/>
<path d="M151.518 180.956V189.875H150.028V182.653L148.703 183.129L148.206 182.053L150.256 180.935H151.518V180.956ZM155.368 177.107H151.518H150.256H149.283L148.434 177.562L146.385 178.679L143.197 180.397L144.729 183.687L145.226 184.764L146.199 186.854V189.896V193.745H150.049H151.539H155.389V189.896V180.977V177.107H155.368Z" fill="#0A1221"/>
<path d="M158.494 187.268C158.494 190.827 153.278 190.827 153.278 187.268C153.278 186.543 153.692 185.819 154.23 185.405C153.692 184.971 153.278 184.267 153.278 183.543C153.278 179.983 158.494 180.025 158.494 183.543C158.494 184.267 158.121 185.012 157.5 185.405C158.121 185.881 158.494 186.543 158.494 187.268ZM155.886 184.743C156.548 184.743 157.086 184.205 157.086 183.543C157.086 181.866 154.706 181.866 154.706 183.543C154.706 184.205 155.223 184.743 155.886 184.743ZM157.045 187.268C157.045 186.626 156.527 186.129 155.886 186.129C155.244 186.129 154.747 186.647 154.747 187.268C154.727 188.902 157.045 188.902 157.045 187.268Z" fill="#CBA262"/>
<path d="M155.886 180.894C157.19 180.894 158.494 181.784 158.494 183.543C158.494 184.267 158.121 185.012 157.5 185.405C158.121 185.881 158.494 186.543 158.494 187.268C158.494 189.047 157.19 189.937 155.886 189.937C154.582 189.937 153.278 189.047 153.278 187.268C153.278 186.543 153.692 185.819 154.23 185.405C153.692 184.971 153.278 184.267 153.278 183.543C153.278 181.784 154.582 180.894 155.886 180.894ZM155.886 184.743C156.548 184.743 157.086 184.205 157.086 183.543C157.086 182.715 156.486 182.28 155.886 182.28C155.285 182.28 154.706 182.694 154.706 183.543C154.706 184.205 155.223 184.743 155.886 184.743ZM155.886 188.509C156.465 188.509 157.045 188.095 157.045 187.268C157.045 186.626 156.527 186.129 155.886 186.129C155.244 186.129 154.747 186.647 154.747 187.268C154.727 188.095 155.306 188.509 155.886 188.509ZM155.886 177.045C152.201 177.045 149.448 179.838 149.448 183.543C149.448 184.184 149.552 184.805 149.759 185.405C149.572 186.005 149.448 186.626 149.448 187.247C149.448 190.972 152.222 193.766 155.906 193.766C159.591 193.766 162.365 190.972 162.365 187.247C162.365 186.605 162.261 185.985 162.075 185.384C162.261 184.784 162.365 184.163 162.365 183.522C162.344 179.838 159.57 177.045 155.886 177.045Z" fill="#0A1221"/>
<path d="M73.6893 131.682L68.3489 145.858L74.9105 159.744L75.5936 129.53L73.6893 131.682Z" fill="#0A1221"/>
<path d="M112.997 182.445V184.68H116.702V186.15H112.997V188.385H117.447V189.875H111.507V180.955H117.447V182.445H112.997Z" fill="#CBA262"/>
<path d="M119 187.412H120.49C120.511 188.158 121.132 188.53 121.794 188.53C122.477 188.53 123.098 188.075 123.098 187.392C123.098 186.647 122.394 186.192 121.794 186.15C121.711 186.15 121.111 186.15 120.449 185.86C119.517 185.426 119 184.639 119 183.584C119 181.887 120.345 180.852 121.794 180.852C123.326 180.852 124.526 181.887 124.547 183.418H123.077C123.057 182.673 122.477 182.342 121.794 182.342C121.09 182.342 120.49 182.756 120.49 183.584C120.49 184.329 121.132 184.722 121.794 184.722C121.856 184.722 122.477 184.722 123.119 185.012C124.071 185.447 124.568 186.336 124.568 187.392C124.568 189.089 123.222 190.02 121.794 190.02C120.262 189.979 119.02 189.068 119 187.412Z" fill="#CBA262"/>
<path d="M131.026 182.322H129.163V189.875H127.693V182.322H125.831V180.956H131.047V182.322H131.026Z" fill="#CBA262"/>
<path d="M133.51 189.172C133.51 189.606 133.158 189.958 132.703 189.958C132.268 189.958 131.916 189.606 131.916 189.172C131.916 188.716 132.268 188.364 132.703 188.364C133.158 188.344 133.51 188.716 133.51 189.172Z" fill="#CBA262"/>
<path d="M139.844 189.875H134.648V188.53L137.836 184.143C138.56 183.149 138.002 182.342 137.236 182.342C136.698 182.342 136.118 182.653 136.118 183.418H134.71C134.71 181.991 135.497 180.852 137.215 180.852C138.995 180.852 140.63 182.715 139.078 184.867L136.428 188.385H139.823V189.875H139.844Z" fill="#CBA262"/>
<path d="M141.748 187.392V183.439C141.748 180.066 146.944 180.066 146.944 183.439V187.392C146.944 190.765 141.748 190.765 141.748 187.392ZM143.239 183.315V187.475C143.239 188.944 145.453 188.923 145.453 187.475V183.315C145.453 181.866 143.239 181.887 143.239 183.315Z" fill="#CBA262"/>
<path d="M151.518 189.875H150.028V182.653L148.703 183.129L148.207 182.053L150.256 180.935H151.518V189.875Z" fill="#CBA262"/>
<path d="M158.494 187.268C158.494 190.827 153.278 190.827 153.278 187.268C153.278 186.543 153.692 185.819 154.23 185.405C153.692 184.971 153.278 184.267 153.278 183.543C153.278 179.983 158.494 180.025 158.494 183.543C158.494 184.267 158.121 185.012 157.5 185.405C158.121 185.881 158.494 186.543 158.494 187.268ZM155.886 184.743C156.548 184.743 157.086 184.205 157.086 183.543C157.086 181.866 154.706 181.866 154.706 183.543C154.706 184.205 155.223 184.743 155.886 184.743ZM157.045 187.268C157.045 186.626 156.527 186.129 155.886 186.129C155.244 186.129 154.747 186.647 154.747 187.268C154.727 188.902 157.045 188.902 157.045 187.268Z" fill="#CBA262"/>
<path d="M164 74.2553H106.001C92.7325 74.2553 81.9689 85.0164 81.9689 98.2815C81.9689 111.547 92.7325 122.308 106.001 122.308H164C177.268 122.308 188.032 111.547 188.032 98.2815C188.032 84.9957 177.268 74.2553 164 74.2553Z" fill="#9F2128"/>
<path d="M164 74.2553H159.467H150.897H143.238H112.521L135.456 84.3956L139.471 86.1753C137.67 89.8175 136.656 93.9357 136.656 98.2815C136.656 100.392 136.905 102.42 137.339 104.386C134.566 100.765 133.054 96.2328 132.496 94.3289C132.33 95.6326 132.247 96.9364 132.247 98.2815C132.247 107.884 137.753 117.796 145.391 122.308H150.897H164C177.268 122.308 188.032 111.547 188.032 98.2815C188.032 84.9957 177.268 74.2553 164 74.2553Z" fill="#5E1D25"/>
<path d="M164.041 113.388C172.386 113.388 179.152 106.625 179.152 98.2815C179.152 89.9382 172.386 83.1746 164.041 83.1746C155.696 83.1746 148.931 89.9382 148.931 98.2815C148.931 106.625 155.696 113.388 164.041 113.388Z" fill="#9F2128"/>
<path d="M164.041 81.1051C154.582 81.1051 146.882 88.8035 146.882 98.2608C146.882 107.718 154.582 115.417 164.041 115.417C173.501 115.417 181.201 107.718 181.201 98.2608C181.201 88.8035 173.501 81.1051 164.041 81.1051ZM164.041 113.388C155.72 113.388 148.931 106.621 148.931 98.2815C148.931 89.9624 155.699 83.1746 164.041 83.1746C172.362 83.1746 179.152 89.9417 179.152 98.2815C179.152 106.601 172.362 113.388 164.041 113.388Z" fill="#5E1D25"/>
<path d="M164.041 77.9596C152.843 77.9596 143.735 87.0651 143.735 98.2815C143.735 109.498 152.843 118.603 164.041 118.603C175.24 118.603 184.347 109.498 184.347 98.2815C184.347 87.0651 175.24 77.9596 164.041 77.9596ZM164.041 115.437C154.582 115.437 146.882 107.739 146.882 98.2815C146.882 88.8242 154.582 81.1258 164.041 81.1258C173.501 81.1258 181.201 88.8242 181.201 98.2815C181.201 107.739 173.501 115.437 164.041 115.437Z" fill="#0A1221"/>
<path d="M167.353 88.431V91.0592C170.065 92.3215 171.969 95.0739 171.969 98.2608C171.969 102.627 168.409 106.187 164.041 106.187C159.674 106.187 156.113 102.627 156.113 98.2608C156.113 95.0739 157.997 92.3215 160.729 91.0592V88.431C156.631 89.8175 153.671 93.7081 153.671 98.2608C153.671 103.993 158.328 108.649 164.062 108.649C169.796 108.649 174.453 103.993 174.453 98.2608C174.411 93.7081 171.452 89.8382 167.353 88.431Z" fill="#0A1221"/>
<path d="M165.262 85.8028H162.82V92.4043H165.262V85.8028Z" fill="#0A1221"/>
<path d="M122.27 116.099C102.358 106.352 102.647 96.1914 102.44 96.0465C102.44 96.0465 106.145 98.5919 111.631 100.723C117.116 102.855 119.89 103.103 119.89 103.103C100.557 91.5351 98.7352 80.3188 98.6938 79.0978C96.9136 79.7807 95.2577 80.6912 93.7467 81.8087C88.7374 85.5544 85.4877 91.5351 85.4877 98.2608C85.4877 101.675 86.3363 104.883 87.806 107.718C91.242 114.278 98.1142 118.769 106.021 118.769H129.08C128.066 118.438 124.568 117.238 122.27 116.099Z" fill="#DB272A"/>
<path d="M164 74.2553C177.268 74.2553 188.032 85.0164 188.032 98.2815C188.032 111.547 177.268 122.308 164 122.308H106.001C92.7325 122.308 81.9689 111.547 81.9689 98.2815C81.9689 85.0164 92.7325 74.2553 106.001 74.2553H164ZM164 70.0543H106.001C90.4349 70.0543 77.767 82.7193 77.767 98.2815C77.767 113.844 90.4349 126.509 106.001 126.509H164C179.566 126.509 192.234 113.844 192.234 98.2815C192.234 82.7193 179.566 70.0543 164 70.0543Z" fill="#0A1221"/>
<path d="M154.665 128.537H140.61C137.815 128.537 136.429 129.944 136.429 132.779V142.857H143.197V134.455H152.077V144.182L143.611 149.893V151.342L152.077 157.157V168.746H143.197V159.827H136.408V170.464C136.408 173.278 137.774 174.685 140.506 174.685H154.644C157.418 174.685 158.804 173.278 158.804 170.464V157.53C158.804 155.688 158.059 154.301 156.569 153.37L152.243 150.659L156.507 147.886C158.038 146.893 158.804 145.465 158.804 143.644V132.8C158.804 129.944 157.418 128.537 154.665 128.537Z" fill="white"/>
<path d="M192.999 174.665H201.403V155.295L192.999 133.255V174.665Z" fill="#CBA262"/>
<path d="M66.5271 138.346L75.5933 117.051H75.4277H65.9889L56.4259 141.429V117.051H47.7943V174.665H56.4259V162.041L59.1996 155.502L63.7327 144.865L66.5271 138.346Z" fill="white"/>
<path d="M183.354 128.537H179.876V134.455H180.642V168.725H171.182V134.455H171.948V128.537H168.388C165.656 128.537 164.29 129.944 164.29 132.779V170.443C164.29 173.257 165.656 174.665 168.388 174.665H183.354C186.148 174.665 187.535 173.257 187.535 170.443V132.779C187.535 129.944 186.148 128.537 183.354 128.537Z" fill="#CBA262"/>
<path d="M113.68 156.971C113.97 155.564 114.115 154.446 114.115 153.639V128.537H107.388V174.644H113.432L124.485 145.61C124.195 147.017 124.05 148.134 124.05 148.942V174.644H130.778V128.537H124.734L113.68 156.971Z" fill="white"/>
<path d="M178.034 134.455V128.537V123.198H173.77V128.537V134.455V137.601H178.034V134.455Z" fill="#CBA262"/>
<path d="M152.056 157.137V168.725H143.176V159.806H136.408V170.443C136.408 173.257 137.774 174.665 140.506 174.665H154.644C157.418 174.665 158.804 173.257 158.804 170.443V157.509C158.804 156.412 158.535 155.502 158.018 154.715C154.996 154.819 151.953 154.902 148.889 154.964L152.056 157.137Z" fill="#C7C6B2"/>
<path d="M192.999 174.665H201.403V155.274L199.809 151.094C197.574 151.404 195.297 151.694 192.999 151.963V174.665Z" fill="#BE8349"/>
<path d="M47.7943 174.665H56.4052V162.041L59.1789 155.502L62.4079 148.01C57.3366 147.038 52.4516 145.982 47.815 144.823V174.665H47.7943Z" fill="#C7C6B2"/>
<path d="M180.642 168.725H171.182V153.95C168.906 154.094 166.608 154.239 164.29 154.363V170.422C164.29 173.237 165.656 174.644 168.388 174.644H183.354C186.148 174.644 187.535 173.237 187.535 170.422V152.542C185.258 152.791 182.96 152.998 180.642 153.205V168.725Z" fill="#BE8349"/>
<path d="M62.1804 162.496L67.3552 174.665H76.8562L66.7756 151.735L62.1804 162.496Z" fill="#C7C6B2"/>
<path d="M100.267 152.936C100.122 152.791 98.9008 152.004 96.5618 150.576C98.818 149.19 100.019 148.424 100.163 148.3C101.136 147.431 101.633 146.21 101.633 144.637V132.758C101.633 129.923 100.267 128.516 97.5347 128.516H79.2366V174.623H97.6589C99.9772 174.623 101.882 172.74 101.882 170.402V156.702C101.861 155.129 101.343 153.846 100.267 152.936ZM86.1294 134.331H94.761V145.506L91.4284 147.865H86.1294V134.331ZM94.9473 168.85H86.1294V153.474H91.5526L94.9473 155.709V168.85Z" fill="white"/>
<path d="M79.2366 174.644H97.6589C99.9772 174.644 101.882 172.761 101.882 170.422V156.723C101.882 155.274 101.447 154.115 100.598 153.225C93.2292 152.584 86.1087 151.756 79.2573 150.783V174.644H79.2366ZM86.1294 153.453H91.5526L94.9473 155.688V168.829H86.1294V153.453Z" fill="#C7C6B2"/>
<path d="M213.802 117.051V148.424C213.802 149.438 213.988 150.825 214.361 152.584L200.555 117.051H192.999V117.858L200.865 138.47L214.651 174.665H222.206V117.051H213.802Z" fill="#CBA262"/>
<path d="M214.361 152.584L212.995 149.086C210.49 149.521 207.944 149.935 205.357 150.307L214.63 174.665H222.185V147.348C219.453 147.907 216.659 148.424 213.802 148.921C213.885 149.893 214.051 151.094 214.361 152.584Z" fill="#BE8349"/>
<path d="M113.68 156.971C113.908 155.916 114.032 155.026 114.094 154.301C111.838 154.177 109.623 154.032 107.408 153.887V174.644H113.452L121.07 154.632C118.938 154.55 116.806 154.446 114.715 154.322L113.68 156.971Z" fill="#C7C6B2"/>
<path d="M124.05 174.644H130.778V154.943C128.521 154.902 126.286 154.839 124.05 154.757V174.644Z" fill="#C7C6B2"/>
</svg>
