<svg width="129" height="42" viewBox="0 0 129 42" fill="none" xmlns="http://www.w3.org/2000/svg">
<path d="M79.0362 8.37296H68.6387C66.5763 8.37296 65.5432 9.40336 65.5432 11.466V18.8104H70.5565V12.6901H77.1165V19.7768L70.8606 23.9423V24.9946L77.1165 29.2259V37.6646H70.5565V31.157H65.5451V38.9088C65.5451 40.9568 66.5559 41.9799 68.5756 41.9799H79.038C81.0875 41.9799 82.1113 40.9568 82.1113 38.9088V29.4817C82.1113 28.137 81.5586 27.1267 80.455 26.4544L77.2501 24.4794L80.4105 22.4606C81.5437 21.7299 82.1113 20.6995 82.1113 19.3676V11.4642C82.1094 9.40336 81.0856 8.37296 79.0362 8.37296Z" fill="white"/>
<path d="M107.4 42H113.612V27.8758L107.4 11.8204V42Z" fill="#CBA262"/>
<path d="M13.8453 15.5237L20.5593 0H20.4295H13.4558L6.3746 17.7654V0H0V42H6.3746V32.7958V32.7939L8.43332 28.0347L11.7866 20.2793L13.8453 15.5237Z" fill="white"/>
<path d="M100.26 8.37296H97.6853V12.6901H98.2547V37.6646H91.2569V12.6882H91.8263V8.37296H89.1871C87.1673 8.37296 86.1565 9.40336 86.1565 11.466V38.9106C86.1565 40.9586 87.1673 41.9817 89.1871 41.9817H100.26C102.322 41.9817 103.355 40.9586 103.355 38.9106V11.4642C103.355 9.40336 102.324 8.37296 100.26 8.37296Z" fill="#CBA262"/>
<path d="M48.7248 29.0943C48.9418 28.0639 49.0513 27.2546 49.0513 26.6681V8.37296H44.0825V41.9817H48.5505L56.7242 20.8273C56.5072 21.8578 56.3977 22.6671 56.3977 23.2535V41.9799H61.3665V8.37296H56.8985L48.7248 29.0943Z" fill="white"/>
<path d="M96.3331 12.6882V8.37296V4.49249H93.1782V8.37296V12.6882V14.9884H96.3331V12.6882Z" fill="#CBA262"/>
<path d="M77.1185 29.2241V37.6628H70.5584V31.1551H65.5452V38.9069C65.5452 40.955 66.556 41.9781 68.5757 41.9781H79.0381C81.0875 41.9781 82.1113 40.955 82.1113 38.9069V29.4798C82.1113 28.6851 81.9129 28.0091 81.5271 27.4501C79.2941 27.5305 77.0406 27.5926 74.7686 27.6328L77.1185 29.2241Z" fill="#C7C6B2"/>
<path d="M107.4 42H113.61V27.8758L112.432 24.8302C110.776 25.0513 109.097 25.2596 107.4 25.4569V42Z" fill="#BE8349"/>
<path d="M0 42H6.37461V32.7958L8.43332 28.0365L10.7999 22.5648C7.04786 21.8541 3.44232 21.0795 0 20.2464V42Z" fill="#C7C6B2"/>
<path d="M98.2547 37.6628H91.2569V26.8984C89.571 27.0116 87.8702 27.1121 86.1565 27.2016V38.9088C86.1565 40.9568 87.1673 41.9799 89.1871 41.9799H100.26C102.322 41.9799 103.355 40.9568 103.355 38.9088V25.8716C101.673 26.0452 99.9721 26.2078 98.2547 26.3594V37.6628Z" fill="#BE8349"/>
<path d="M10.6348 33.1319L14.4629 42H21.4922L14.0252 25.2906L10.6348 33.1319Z" fill="#C7C6B2"/>
<path d="M38.8133 26.1529C38.7113 26.0525 37.7969 25.4806 36.0665 24.4356C37.7376 23.4198 38.6241 22.8681 38.7261 22.7822C39.4532 22.1519 39.8167 21.2658 39.8167 20.1185V11.4642C39.8167 9.40336 38.8059 8.37112 36.7861 8.37112H23.2505V41.9799H36.8733C38.5944 41.9799 39.991 40.6042 39.991 38.9088V28.9226C39.991 27.7497 39.5978 26.8271 38.8133 26.1529ZM28.3509 12.6024H34.7367V20.7415L32.2736 22.4588H28.3509V12.6024ZM34.8683 37.7487H28.3509V26.5384H32.3608L34.8683 28.1717V37.7487Z" fill="white"/>
<path d="M23.2505 41.9799H36.8733C38.5944 41.9799 39.991 40.6042 39.991 38.9088V28.9226C39.991 27.8721 39.6739 27.0226 39.0433 26.3722C33.5997 25.8972 28.3231 25.3016 23.2505 24.5945V41.9799ZM28.3509 26.5403H32.3608L34.8683 28.1717V37.7487H28.3509V26.5403Z" fill="#C7C6B2"/>
<path d="M122.79 0V22.8644C122.79 23.5989 122.926 24.6092 123.198 25.8972L112.985 0H107.4V0.593762L113.213 15.6205L123.417 41.9982H129.002V0H122.79Z" fill="#CBA262"/>
<path d="M123.199 25.8972L122.195 23.3522C120.346 23.6665 118.463 23.9661 116.551 24.2493L123.417 42H129.002V22.0953C126.98 22.499 124.912 22.8827 122.803 23.2481C122.839 23.9369 122.97 24.8193 123.199 25.8972Z" fill="#BE8349"/>
<path d="M48.7248 29.0944C48.8881 28.3216 48.9901 27.6748 49.0309 27.1523C47.369 27.0609 45.7184 26.9586 44.0825 26.8454V41.9781H48.5505L54.1851 27.3953C52.6067 27.3313 51.0377 27.2583 49.4816 27.176L48.7248 29.0944Z" fill="#C7C6B2"/>
</svg>
