<svg width="41" height="24" viewBox="0 0 41 24" fill="none" xmlns="http://www.w3.org/2000/svg">
<path d="M40.6338 20.6999C40.5233 20.5171 39.8418 19.0473 36.5615 16.0267C33.1275 12.8639 33.5888 13.378 37.7251 7.90878C40.2446 4.57834 41.2512 2.54448 40.9365 1.67532C40.637 0.846683 38.7838 1.06516 38.7838 1.06516L32.623 1.10092C32.623 1.10092 32.1665 1.03974 31.8262 1.24074C31.4954 1.43936 31.2832 1.89698 31.2832 1.89698C31.2832 1.89698 30.307 4.47506 29.0048 6.66622C26.2603 11.2909 25.1608 11.5348 24.7123 11.2472C23.6696 10.5782 23.9307 8.55708 23.9307 7.12384C23.9307 2.64141 24.6146 0.772797 22.5957 0.289755C21.9246 0.129271 21.4321 0.0228113 19.7175 0.00533283C17.5184 -0.017707 15.6556 0.0132776 14.6025 0.524126C13.9002 0.864956 13.3596 1.62527 13.6903 1.66817C14.098 1.7214 15.0205 1.91446 15.5099 2.57546C16.1425 3.42714 16.1201 5.34421 16.1201 5.34421C16.1201 5.34421 16.4837 10.6195 15.272 11.2758C14.4391 11.7254 13.2987 10.8078 10.8514 6.61061C9.59806 4.46234 8.64986 2.08527 8.64986 2.08527C8.64986 2.08527 8.46807 1.64275 8.14213 1.40679C7.74732 1.11919 7.19394 1.02782 7.19394 1.02782L1.3358 1.06358C1.3358 1.06358 0.456474 1.089 0.133735 1.46796C-0.152965 1.80641 0.110511 2.50237 0.110511 2.50237C0.110511 2.50237 4.69692 13.146 9.88956 18.5135C14.6538 23.4328 20.061 23.1103 20.061 23.1103H22.5108C22.5108 23.1103 23.2516 23.0293 23.628 22.6249C23.9763 22.2538 23.9635 21.5571 23.9635 21.5571C23.9635 21.5571 23.9147 18.295 25.4419 17.8151C26.9458 17.3424 28.8783 20.9676 30.926 22.3635C32.474 23.4185 33.6505 23.1874 33.6505 23.1874L39.1266 23.1111C39.1266 23.1095 41.992 22.9339 40.6338 20.6999Z" fill="#CBA262"/>
</svg>
